# Blender v2.76 (sub 0) OBJ File: 'sverige3.blend'
# www.blender.org
mtllib 11.mtl
o Plane.014_Plane.015
v -1.837420 0.405976 3.635761
v -1.884751 0.405976 3.679367
v -1.840863 0.362223 3.679514
v -1.665268 0.405976 3.635761
v -1.553133 0.362223 3.679514
v -1.639850 0.405976 3.596035
v -1.650391 0.405976 3.573198
v -1.606081 0.362223 3.564795
v -1.625944 0.405976 3.524304
v -1.601350 0.405976 3.519034
v -1.567465 0.362223 3.556520
v -1.522163 0.405976 3.534137
v -1.500552 0.405976 3.548544
v -1.484118 0.362223 3.612084
v -1.423092 0.405976 3.587939
v -1.355703 0.405976 3.612767
v -1.340627 0.362223 3.664948
v -1.286433 0.405976 3.661332
v -1.130415 0.405976 3.846242
v -1.139739 0.362223 3.903038
v -1.084663 0.405976 3.919766
v -2.046667 0.405976 5.187508
v -2.032646 0.405976 5.271831
v -2.004705 0.362223 5.223858
v -2.027505 0.405976 4.810665
v -1.982226 0.362223 4.781754
v -2.000193 0.405976 4.731125
v -1.867097 0.405976 4.487736
v -1.885138 0.405976 4.566761
v -1.813998 0.362223 4.541429
v -1.915944 0.405976 4.188546
v -1.878950 0.362223 4.143603
v -1.919415 0.405976 4.101759
v -1.725045 0.405976 5.762630
v -1.763791 0.362223 5.739146
v -1.795073 0.405976 5.771922
v -1.637469 0.405976 5.678862
v -1.582007 0.405976 5.611934
v -1.639766 0.362223 5.620513
v -1.544455 0.405976 5.554163
v -1.509337 0.405976 5.559754
v -1.503682 0.362223 5.411153
v -1.505656 0.405976 5.573558
v -1.453415 0.405976 5.631196
v -1.457915 0.362223 5.582781
v -1.482893 0.405976 5.620142
v -1.407413 0.405976 5.608613
v -1.449497 0.362223 5.585937
v -1.804804 0.405976 5.766614
v -1.808435 0.362223 5.714795
v -1.859457 0.405976 5.705036
v -1.034284 0.405976 4.074470
v -1.053643 0.405976 3.990670
v -1.079479 0.362223 4.040775
v -1.028485 0.405976 4.213651
v -1.069571 0.362223 4.278562
v -0.993052 0.405976 4.285375
v -0.946970 0.405976 4.323776
v -0.959317 0.362223 4.370441
v -0.917939 0.405976 4.395298
v -0.946547 0.405976 4.667073
v -0.991690 0.362223 4.677987
v -0.992635 0.405976 4.724422
v -1.164556 0.405976 4.781729
v -1.333213 0.362223 4.791828
v -1.165440 0.405976 4.811814
v -1.010635 0.405976 4.873736
v -1.003852 0.362223 4.923573
v -0.954068 0.405976 4.930730
v -0.900976 0.405976 5.066409
v -0.930728 0.362223 5.110443
v -0.894975 0.405976 5.149762
v -0.928335 0.405976 5.292727
v -0.979029 0.362223 5.317438
v -0.962925 0.405976 5.371486
v -1.031656 0.405976 5.472291
v -1.078837 0.362223 5.463823
v -1.100026 0.405976 5.506821
v -1.225027 0.405976 5.502192
v -1.283064 0.362223 5.456259
v -1.303263 0.405976 5.527463
v -1.837420 0.680694 3.635761
v -1.840863 0.724446 3.679514
v -1.884751 0.680694 3.679367
v -1.665268 0.680694 3.635761
v -1.639850 0.680694 3.596035
v -1.553133 0.724446 3.679514
v -1.650391 0.680694 3.573198
v -1.625944 0.680694 3.524304
v -1.606081 0.724446 3.564795
v -1.601350 0.680694 3.519034
v -1.522163 0.680694 3.534137
v -1.567465 0.724446 3.556520
v -1.500552 0.680694 3.548544
v -1.423092 0.680694 3.587939
v -1.484118 0.724446 3.612084
v -1.355703 0.680694 3.612767
v -1.286433 0.680694 3.661332
v -1.340627 0.724446 3.664948
v -1.130415 0.680694 3.846242
v -1.084664 0.680694 3.919766
v -1.139739 0.724446 3.903038
v -2.046667 0.680694 5.187508
v -2.004705 0.724446 5.223858
v -2.032646 0.680694 5.271831
v -2.027505 0.680694 4.810665
v -2.000193 0.680694 4.731125
v -1.982226 0.724446 4.781754
v -1.867097 0.680694 4.487736
v -1.813998 0.724446 4.541429
v -1.885138 0.680694 4.566761
v -1.915944 0.680694 4.188546
v -1.919415 0.680694 4.101759
v -1.878950 0.724446 4.143603
v -1.725045 0.680694 5.762630
v -1.795073 0.680694 5.771922
v -1.763791 0.724446 5.739146
v -1.637469 0.680694 5.678862
v -1.639766 0.724446 5.620513
v -1.582006 0.680694 5.611934
v -1.544455 0.680694 5.554163
v -1.503682 0.724446 5.411153
v -1.509337 0.680694 5.559754
v -1.505656 0.680694 5.573558
v -1.457915 0.724446 5.582781
v -1.453415 0.680694 5.631196
v -1.482893 0.680694 5.620142
v -1.449497 0.724446 5.585937
v -1.407413 0.680694 5.608613
v -1.804804 0.680694 5.766614
v -1.859457 0.680694 5.705036
v -1.808435 0.724446 5.714795
v -1.034284 0.680694 4.074470
v -1.079479 0.724446 4.040775
v -1.053643 0.680694 3.990670
v -1.028485 0.680694 4.213651
v -0.993052 0.680694 4.285375
v -1.069571 0.724446 4.278562
v -0.946970 0.680694 4.323776
v -0.917939 0.680694 4.395298
v -0.959317 0.724446 4.370441
v -0.946547 0.680694 4.667073
v -0.992635 0.680694 4.724422
v -0.991690 0.724446 4.677987
v -1.164556 0.680694 4.781729
v -1.165440 0.680694 4.811814
v -1.333213 0.724446 4.791828
v -1.010635 0.680694 4.873736
v -0.954068 0.680694 4.930730
v -1.003852 0.724446 4.923573
v -0.900976 0.680694 5.066409
v -0.894975 0.680694 5.149762
v -0.930728 0.724446 5.110443
v -0.928335 0.680694 5.292727
v -0.962924 0.680694 5.371486
v -0.979029 0.724446 5.317438
v -1.031655 0.680694 5.472291
v -1.100026 0.680694 5.506821
v -1.078837 0.724446 5.463823
v -1.225027 0.680694 5.502192
v -1.303263 0.680694 5.527463
v -1.283064 0.724446 5.456259
vn -0.996600 0.000000 -0.081800
vn -0.478800 0.000000 0.877900
vn 0.973800 0.000000 0.227200
vn 0.000000 -1.000000 0.000000
vn -0.819200 0.000000 -0.573500
vn -0.986900 0.000000 0.161100
vn 0.826200 -0.000000 0.563300
vn -0.209500 0.000000 -0.977800
vn 0.640200 0.000000 -0.768200
vn -0.908000 0.000000 0.419100
vn -0.037000 0.000000 0.999300
vn 0.554700 0.000000 -0.832100
vn -0.998700 0.000000 -0.050800
vn 0.838400 -0.000000 0.545000
vn 0.000000 1.000000 0.000000
vn 0.345700 0.000000 -0.938300
vn 0.994500 0.000000 0.104700
vn -0.966200 0.000000 0.257700
vn 0.999100 0.000000 -0.041600
vn 0.764300 -0.000000 -0.644900
vn 0.316200 0.000000 0.948700
vn 0.351100 0.000000 -0.936300
vn 0.916200 0.000000 -0.400800
vn 0.371400 0.000000 -0.928500
vn 0.614600 0.000000 0.788800
vn -0.928500 0.000000 0.371200
vn 0.931200 0.000000 -0.364400
vn 0.691200 0.000000 0.722600
vn -0.559700 -0.563500 -0.607600
vn -0.292800 -0.937700 -0.187300
vn -0.691700 -0.634000 -0.345800
vn 0.153700 -0.571500 -0.806100
vn 0.301300 -0.747200 -0.592400
vn 0.452900 -0.614400 -0.646000
vn 0.641600 -0.655000 -0.399200
vn -0.766600 -0.629300 0.127500
vn -0.751500 -0.607200 -0.258000
vn -0.551900 -0.824400 -0.126000
vn -0.747900 -0.663100 0.029900
vn 0.110400 -0.544100 0.831700
vn 0.574800 -0.665400 0.476300
vn -0.044700 -0.958800 0.280600
vn -0.616400 -0.554800 0.558700
vn 0.126200 -0.549400 0.826000
vn -0.605800 -0.586500 0.537600
vn 0.748600 -0.640100 -0.172900
vn 0.497500 -0.831900 -0.245800
vn 0.772400 -0.552400 -0.313500
vn 0.654100 -0.543800 0.525700
vn 0.251500 -0.967800 0.007400
vn 0.583500 -0.569200 -0.579200
vn 0.797700 -0.600300 -0.057400
vn 0.703200 -0.640400 0.308900
vn 0.376500 -0.550200 0.745400
vn 0.178100 -0.815000 0.551300
vn -0.559700 0.563500 -0.607600
vn -0.292800 0.937700 -0.187300
vn -0.691700 0.634000 -0.345800
vn 0.153700 0.571500 -0.806100
vn 0.301300 0.747200 -0.592400
vn 0.452900 0.614400 -0.646000
vn 0.641600 0.655000 -0.399200
vn -0.766600 0.629300 0.127500
vn -0.751500 0.607200 -0.258000
vn -0.551900 0.824400 -0.126000
vn -0.747900 0.663100 0.029900
vn 0.110400 0.544100 0.831700
vn 0.574800 0.665400 0.476300
vn -0.044700 0.958800 0.280600
vn -0.616400 0.554800 0.558700
vn 0.126200 0.549400 0.826000
vn -0.605800 0.586500 0.537600
vn 0.748600 0.640100 -0.172900
vn 0.497500 0.831900 -0.245800
vn 0.772400 0.552400 -0.313500
vn 0.654100 0.543800 0.525700
vn 0.251500 0.967800 0.007400
vn 0.583500 0.569200 -0.579200
vn 0.797700 0.600300 -0.057400
vn 0.703200 0.640400 0.308900
vn 0.376500 0.550200 0.745400
vn 0.178100 0.815000 0.551300
vn 0.000000 -0.707100 -0.707100
vn -0.642000 -0.707100 0.296300
vn -0.148200 -0.707100 -0.691400
vn 0.392200 -0.707100 -0.588300
vn 0.244500 -0.707100 -0.663500
vn 0.540400 -0.707100 -0.456000
vn -0.706200 -0.707100 -0.035900
vn -0.697900 -0.707100 0.113900
vn -0.579300 -0.707100 -0.405500
vn -0.704700 -0.707100 -0.057800
vn 0.488800 -0.707100 0.511000
vn 0.592900 -0.707100 0.385400
vn -0.683200 -0.707100 0.182200
vn 0.248300 0.707100 -0.662100
vn -0.338600 -0.707100 0.620800
vn -0.656600 -0.707100 0.262500
vn 0.706500 -0.707100 -0.029400
vn 0.647800 -0.707100 -0.283400
vn 0.452700 -0.707100 -0.543200
vn 0.703200 -0.707100 0.074000
vn 0.223600 -0.707100 0.670800
vn 0.262600 -0.707100 -0.656500
vn 0.658500 -0.707100 -0.257700
vn 0.688600 -0.707100 0.160700
vn 0.584200 -0.707100 0.398300
vn -0.026200 -0.707100 0.706600
vn 0.434600 -0.707100 0.557800
vn 0.000000 0.707100 -0.707100
vn -0.642000 0.707100 0.296300
vn -0.148200 0.707100 -0.691400
vn 0.392200 0.707100 -0.588300
vn 0.244500 0.707100 -0.663500
vn 0.540400 0.707100 -0.456000
vn -0.706200 0.707100 -0.035900
vn -0.697900 0.707100 0.113900
vn -0.579300 0.707100 -0.405500
vn -0.704700 0.707100 -0.057800
vn 0.488800 0.707100 0.511000
vn 0.592900 0.707100 0.385400
vn -0.683200 0.707100 0.182200
vn -0.248200 0.707100 0.662100
vn -0.338600 0.707100 0.620800
vn -0.656600 0.707100 0.262500
vn 0.706500 0.707100 -0.029400
vn 0.647800 0.707100 -0.283400
vn 0.452700 0.707100 -0.543200
vn 0.703200 0.707100 0.074000
vn 0.223600 0.707100 0.670800
vn 0.262600 0.707100 -0.656500
vn 0.658500 0.707100 -0.257700
vn 0.688600 0.707100 0.160700
vn 0.584200 0.707100 0.398300
vn -0.026200 0.707100 0.706600
vn 0.434600 0.707100 0.557800
vn -0.999200 0.000000 0.040000
vn -0.974900 0.000000 -0.222600
vn 0.997400 0.000000 -0.071800
vn 0.709800 0.000000 -0.704400
vn -0.842300 0.000000 -0.538900
vn -0.677600 0.000000 -0.735500
vn -0.986500 0.000000 0.164000
vn -0.747900 0.000000 0.663800
vn -0.945800 0.000000 -0.324800
vn 0.915600 0.000000 0.402100
vn -0.894400 0.000000 -0.447200
vn 0.896600 0.000000 -0.442900
vn 0.974300 0.000000 -0.225100
vn 0.450800 -0.000000 0.892600
vn 0.187300 0.000000 -0.982300
vn 0.849000 0.000000 -0.528300
vn 0.131500 0.000000 0.991300
vn 0.770000 0.000000 0.638100
vn 0.307400 0.000000 0.951600
vn 0.453300 0.000000 -0.891300
vn 0.926600 0.000000 -0.376100
vn -0.157200 0.000000 0.987600
vn 0.151000 0.000000 0.988500
vn 0.574100 0.000000 -0.818800
vn 0.779500 0.000000 0.626400
vn -0.741000 0.000000 0.671600
vn 0.999600 0.000000 0.029400
vn 0.000000 0.000000 -1.000000
vn 0.392200 -0.707100 -0.588400
vn 0.244400 -0.707100 -0.663500
vn -0.248200 -0.707100 0.662100
vn -0.338700 -0.707100 0.620800
vn 0.392200 0.707100 -0.588400
vn 0.244400 0.707100 -0.663500
vn 0.248300 -0.707100 -0.662100
vn -0.740900 0.000000 0.671600
usemtl None
s off
f 2//1 113//1 84//1
f 33//1 113//1 2//1
f 49//2 116//2 130//2
f 73//3 152//3 154//3
f 56//4 30//4 32//4
f 29//5 107//5 111//5
f 31//6 109//6 112//6
f 75//7 157//7 76//7
f 10//8 89//8 91//8
f 58//9 137//9 139//9
f 7//10 86//10 88//10
f 79//11 158//11 160//11
f 13//12 92//12 94//12
f 25//13 103//13 106//13
f 38//14 121//14 120//14
f 138//15 134//15 114//15
f 16//16 95//16 97//16
f 61//17 140//17 142//17
f 41//18 124//18 123//18
f 55//19 133//19 136//19
f 19//20 98//20 100//20
f 64//21 143//21 145//21
f 44//22 127//22 126//22
f 53//23 101//23 135//23
f 67//24 146//24 148//24
f 47//25 161//25 129//25
f 23//26 131//26 105//26
f 70//27 149//27 151//27
f 34//28 118//28 115//28
f 1//29 3//29 2//29
f 4//30 6//30 5//30
f 7//31 9//31 8//31
f 10//32 12//32 11//32
f 13//33 15//33 14//33
f 16//34 18//34 17//34
f 19//35 21//35 20//35
f 22//36 24//36 23//36
f 25//37 27//37 26//37
f 28//38 30//38 29//38
f 31//39 33//39 32//39
f 34//40 36//40 35//40
f 37//41 39//41 38//41
f 40//42 42//42 41//42
f 43//43 45//43 44//43
f 46//44 48//44 47//44
f 49//45 51//45 50//45
f 52//46 54//46 53//46
f 55//47 57//47 56//47
f 58//48 60//48 59//48
f 61//49 63//49 62//49
f 64//50 66//50 65//50
f 67//51 69//51 68//51
f 70//52 72//52 71//52
f 73//53 75//53 74//53
f 76//54 78//54 77//54
f 79//55 81//55 80//55
f 82//56 84//56 83//56
f 85//57 87//57 86//57
f 88//58 90//58 89//58
f 91//59 93//59 92//59
f 94//60 96//60 95//60
f 97//61 99//61 98//61
f 100//62 102//62 101//62
f 103//63 105//63 104//63
f 106//64 108//64 107//64
f 109//65 111//65 110//65
f 112//66 114//66 113//66
f 115//67 117//67 116//67
f 118//68 120//68 119//68
f 121//69 123//69 122//69
f 124//70 126//70 125//70
f 127//71 129//71 128//71
f 130//72 132//72 131//72
f 133//73 135//73 134//73
f 136//74 138//74 137//74
f 139//75 141//75 140//75
f 142//76 144//76 143//76
f 145//77 147//77 146//77
f 148//78 150//78 149//78
f 151//79 153//79 152//79
f 154//80 156//80 155//80
f 157//81 159//81 158//81
f 160//82 162//82 161//82
f 3//83 4//83 5//83
f 8//84 6//84 7//84
f 8//85 10//85 11//85
f 11//86 13//86 14//86
f 17//87 15//87 16//87
f 17//88 19//88 20//88
f 26//89 22//89 25//89
f 32//90 28//90 31//90
f 26//91 29//91 30//91
f 33//92 3//92 32//92
f 37//93 35//93 39//93
f 40//94 39//94 42//94
f 41//95 45//95 43//95
f 44//96 48//96 46//96
f 35//97 49//97 50//97
f 23//98 50//98 51//98
f 54//99 55//99 56//99
f 54//100 21//100 53//100
f 59//101 57//101 58//101
f 62//102 60//102 61//102
f 62//103 64//103 65//103
f 68//104 66//104 67//104
f 68//105 70//105 71//105
f 71//106 73//106 74//106
f 77//107 75//107 76//107
f 77//108 79//108 80//108
f 81//109 48//109 80//109
f 85//110 83//110 87//110
f 86//111 90//111 88//111
f 91//112 90//112 93//112
f 94//113 93//113 96//113
f 95//114 99//114 97//114
f 100//115 99//115 102//115
f 103//116 108//116 106//116
f 109//117 114//117 112//117
f 111//118 108//118 110//118
f 83//119 113//119 114//119
f 117//120 118//120 119//120
f 119//121 121//121 122//121
f 125//122 123//122 124//122
f 125//123 127//123 128//123
f 130//124 117//124 132//124
f 132//125 105//125 131//125
f 136//126 134//126 138//126
f 101//127 134//127 135//127
f 137//128 141//128 139//128
f 140//129 144//129 142//129
f 145//130 144//130 147//130
f 146//131 150//131 148//131
f 151//132 150//132 153//132
f 154//133 153//133 156//133
f 155//134 159//134 157//134
f 160//135 159//135 162//135
f 128//136 161//136 162//136
f 113//137 31//137 112//137
f 29//138 109//138 28//138
f 152//139 70//139 151//139
f 67//140 149//140 69//140
f 86//141 4//141 85//141
f 2//142 82//142 1//142
f 103//143 23//143 105//143
f 49//144 131//144 51//144
f 25//145 107//145 27//145
f 155//146 73//146 154//146
f 89//147 7//147 88//147
f 137//148 55//148 136//148
f 53//149 133//149 52//149
f 158//150 76//150 157//150
f 92//151 10//151 91//151
f 19//152 101//152 21//152
f 116//153 34//153 115//153
f 38//154 118//154 37//154
f 161//155 79//155 160//155
f 95//156 13//156 94//156
f 140//157 58//157 139//157
f 41//158 121//158 40//158
f 127//159 47//159 129//159
f 98//160 16//160 97//160
f 143//161 61//161 142//161
f 44//162 124//162 43//162
f 146//163 64//163 145//163
f 4//164 82//164 85//164
f 36//2 116//2 49//2
f 72//3 152//3 73//3
f 3//4 5//4 32//4
f 30//4 65//4 26//4
f 24//4 39//4 50//4
f 35//4 50//4 39//4
f 42//4 48//4 45//4
f 80//4 74//4 77//4
f 42//4 80//4 48//4
f 24//4 42//4 39//4
f 5//4 20//4 32//4
f 26//4 65//4 24//4
f 42//4 65//4 80//4
f 74//4 80//4 71//4
f 65//4 56//4 62//4
f 71//4 80//4 68//4
f 24//4 65//4 42//4
f 11//4 5//4 8//4
f 80//4 65//4 68//4
f 14//4 5//4 11//4
f 32//4 20//4 54//4
f 62//4 56//4 59//4
f 56//4 32//4 54//4
f 20//4 5//4 17//4
f 14//4 17//4 5//4
f 65//4 30//4 56//4
f 27//5 107//5 29//5
f 28//6 109//6 31//6
f 155//7 157//7 75//7
f 9//8 89//8 10//8
f 57//9 137//9 58//9
f 6//10 86//10 7//10
f 78//11 158//11 79//11
f 12//12 92//12 13//12
f 22//13 103//13 25//13
f 40//14 121//14 38//14
f 110//15 138//15 114//15
f 87//15 93//15 90//15
f 114//15 87//15 83//15
f 104//15 147//15 108//15
f 117//15 119//15 132//15
f 122//15 104//15 119//15
f 128//15 122//15 125//15
f 156//15 162//15 159//15
f 162//15 122//15 128//15
f 119//15 104//15 132//15
f 108//15 147//15 110//15
f 87//15 96//15 93//15
f 96//15 87//15 99//15
f 102//15 114//15 134//15
f 138//15 144//15 141//15
f 147//15 162//15 150//15
f 138//15 147//15 144//15
f 99//15 87//15 102//15
f 110//15 147//15 138//15
f 162//15 147//15 122//15
f 153//15 162//15 156//15
f 102//15 87//15 114//15
f 150//15 162//15 153//15
f 147//15 104//15 122//15
f 15//16 95//16 16//16
f 60//17 140//17 61//17
f 43//18 124//18 41//18
f 52//19 133//19 55//19
f 18//20 98//20 19//20
f 63//21 143//21 64//21
f 46//22 127//22 44//22
f 21//23 101//23 53//23
f 66//24 146//24 67//24
f 81//25 161//25 47//25
f 51//26 131//26 23//26
f 69//27 149//27 70//27
f 37//28 118//28 34//28
f 1//83 4//83 3//83
f 5//84 6//84 8//84
f 9//85 10//85 8//85
f 12//165 13//165 11//165
f 14//166 15//166 17//166
f 18//88 19//88 17//88
f 24//89 22//89 26//89
f 30//90 28//90 32//90
f 27//91 29//91 26//91
f 2//92 3//92 33//92
f 34//93 35//93 37//93
f 38//94 39//94 40//94
f 42//95 45//95 41//95
f 45//167 48//167 44//167
f 36//168 49//168 35//168
f 24//98 50//98 23//98
f 52//99 55//99 54//99
f 20//100 21//100 54//100
f 56//101 57//101 59//101
f 59//102 60//102 62//102
f 63//103 64//103 62//103
f 65//104 66//104 68//104
f 69//105 70//105 68//105
f 72//106 73//106 71//106
f 74//107 75//107 77//107
f 78//108 79//108 77//108
f 47//109 48//109 81//109
f 82//110 83//110 85//110
f 87//111 90//111 86//111
f 89//112 90//112 91//112
f 92//169 93//169 94//169
f 96//170 99//170 95//170
f 98//115 99//115 100//115
f 104//116 108//116 103//116
f 110//117 114//117 109//117
f 107//118 108//118 111//118
f 84//119 113//119 83//119
f 115//120 118//120 117//120
f 120//121 121//121 119//121
f 122//122 123//122 125//122
f 126//171 127//171 125//171
f 116//124 117//124 130//124
f 104//125 105//125 132//125
f 133//126 134//126 136//126
f 102//127 134//127 101//127
f 138//128 141//128 137//128
f 141//129 144//129 140//129
f 143//130 144//130 145//130
f 147//131 150//131 146//131
f 149//132 150//132 151//132
f 152//133 153//133 154//133
f 156//134 159//134 155//134
f 158//135 159//135 160//135
f 129//136 161//136 128//136
f 33//137 31//137 113//137
f 111//138 109//138 29//138
f 72//139 70//139 152//139
f 148//140 149//140 67//140
f 6//141 4//141 86//141
f 84//142 82//142 2//142
f 22//143 23//143 103//143
f 130//144 131//144 49//144
f 106//145 107//145 25//145
f 75//146 73//146 155//146
f 9//147 7//147 89//147
f 57//148 55//148 137//148
f 135//149 133//149 53//149
f 78//150 76//150 158//150
f 12//151 10//151 92//151
f 100//152 101//152 19//152
f 36//153 34//153 116//153
f 120//154 118//154 38//154
f 81//155 79//155 161//155
f 15//156 13//156 95//156
f 60//157 58//157 140//157
f 123//158 121//158 41//158
f 46//159 47//159 127//159
f 18//160 16//160 98//160
f 63//161 61//161 143//161
f 126//172 124//172 44//172
f 66//163 64//163 146//163
f 1//164 82//164 4//164
