# Blender v2.76 (sub 0) OBJ File: 'sverige3.blend'
# www.blender.org
mtllib 12.mtl
o Plane.013_Plane.014
v 0.722645 0.400513 5.403214
v 0.710183 0.400513 5.350915
v 0.689883 0.362223 5.383386
v 0.632092 0.400513 5.548097
v 0.584921 0.362223 5.551325
v 0.577737 0.400513 5.598059
v 0.403252 0.400513 5.687659
v 0.349963 0.362223 5.671980
v 0.337086 0.400513 5.726018
v 0.139014 0.400513 5.854765
v 0.096695 0.362223 5.836604
v 0.068699 0.400513 5.873168
v -0.058146 0.400513 5.864984
v -0.084912 0.362223 5.824887
v -0.129470 0.400513 5.843292
v -0.854400 0.400513 5.084179
v -0.893734 0.400513 5.144442
v -0.850910 0.362223 5.129425
v -0.689054 0.400513 4.960170
v -0.639781 0.362223 4.971077
v -0.622621 0.400513 4.923616
v -0.420403 0.400513 4.846912
v -0.242263 0.362223 4.820294
v -0.422274 0.400513 4.826483
v -0.658518 0.400513 4.783530
v -0.558419 0.362223 4.762811
v -0.660639 0.400513 4.762459
v -0.448479 0.400513 4.677596
v -0.397571 0.362223 4.698472
v -0.378357 0.400513 4.646913
v 0.323080 0.400513 4.595400
v 0.333874 0.362223 4.634267
v 0.374202 0.400513 4.633340
v -0.176400 0.400513 4.570835
v -0.249215 0.400513 4.585417
v -0.206890 0.362223 4.607672
v 0.454833 0.400513 4.899939
v 0.442866 0.400513 4.825600
v 0.417295 0.362223 4.867848
v 0.448787 0.400513 5.153852
v 0.409069 0.362223 5.213399
v 0.480632 0.400513 5.211960
v -0.307165 0.400513 5.740115
v -0.313064 0.362223 5.692412
v -0.360984 0.400513 5.688679
v -0.461204 0.400513 5.532781
v -0.453776 0.362223 5.473526
v -0.513278 0.400513 5.478614
v -0.765277 0.400513 5.302215
v -0.791451 0.362223 5.237153
v -0.832332 0.400513 5.294135
v -0.902590 0.400513 5.321457
v -0.884491 0.362223 5.273335
v -0.929576 0.400513 5.298047
v 0.722645 0.686156 5.403214
v 0.689883 0.724446 5.383386
v 0.710183 0.686156 5.350915
v 0.632092 0.686156 5.548097
v 0.577737 0.686156 5.598059
v 0.584921 0.724446 5.551325
v 0.403252 0.686156 5.687659
v 0.337086 0.686156 5.726018
v 0.349963 0.724446 5.671980
v 0.139014 0.686156 5.854765
v 0.068699 0.686156 5.873168
v 0.096695 0.724446 5.836604
v -0.058146 0.686156 5.864984
v -0.129470 0.686156 5.843292
v -0.084912 0.724446 5.824887
v -0.854400 0.686156 5.084179
v -0.850911 0.724446 5.129425
v -0.893734 0.686156 5.144442
v -0.689055 0.686156 4.960170
v -0.622621 0.686156 4.923616
v -0.639781 0.724446 4.971077
v -0.420403 0.686156 4.846912
v -0.422274 0.686156 4.826483
v -0.242263 0.724446 4.820294
v -0.658518 0.686156 4.783530
v -0.660639 0.686156 4.762459
v -0.558419 0.724446 4.762811
v -0.448479 0.686156 4.677596
v -0.378357 0.686156 4.646913
v -0.397571 0.724446 4.698472
v 0.323080 0.686156 4.595400
v 0.374202 0.686156 4.633340
v 0.333874 0.724446 4.634267
v -0.176400 0.686156 4.570835
v -0.206890 0.724446 4.607672
v -0.249215 0.686156 4.585417
v 0.454833 0.686156 4.899939
v 0.417295 0.724446 4.867848
v 0.442866 0.686156 4.825600
v 0.448787 0.686156 5.153852
v 0.480632 0.686156 5.211960
v 0.409069 0.724446 5.213399
v -0.307165 0.686156 5.740115
v -0.360984 0.686156 5.688679
v -0.313064 0.724446 5.692412
v -0.461204 0.686156 5.532781
v -0.513278 0.686156 5.478614
v -0.453776 0.724446 5.473526
v -0.765277 0.686156 5.302215
v -0.832333 0.686156 5.294135
v -0.791452 0.724446 5.237154
v -0.902591 0.686156 5.321457
v -0.929576 0.686156 5.298047
v -0.884491 0.724446 5.273335
vn 0.517800 0.000000 -0.855500
vn -0.429900 0.000000 -0.902900
vn 0.000000 -1.000000 0.000000
vn 0.000000 1.000000 0.000000
vn 0.999700 0.000000 0.023800
vn 0.545000 0.000000 0.838400
vn -0.354700 0.000000 -0.935000
vn 0.941700 0.000000 -0.336300
vn -0.064400 0.000000 0.997900
vn 0.049100 0.000000 -0.998800
vn -0.841200 0.000000 0.540800
vn -0.502100 0.000000 0.864800
vn 0.456800 0.000000 0.889600
vn -0.973800 -0.000000 -0.227200
vn -0.600000 -0.000000 -0.800000
vn -0.178900 -0.000000 0.983900
vn -0.573500 -0.000000 0.819200
vn -0.371400 0.000000 -0.928500
vn 0.362400 0.000000 0.932000
vn 0.792300 -0.580200 -0.188800
vn 0.535800 -0.610900 0.582900
vn 0.345500 -0.724900 0.596000
vn 0.203700 -0.594200 0.778100
vn -0.227400 -0.624000 0.747600
vn -0.678900 -0.585500 -0.443100
vn -0.363700 -0.656300 -0.661000
vn -0.207400 -0.978100 0.019000
vn -0.350700 -0.935800 0.035300
vn -0.278900 -0.718300 -0.637400
vn 0.500300 -0.543300 -0.674200
vn -0.154300 -0.618400 -0.770500
vn 0.758000 -0.640800 -0.122000
vn 0.453100 -0.856200 -0.248300
vn -0.541000 -0.621900 0.566100
vn -0.458700 -0.771400 0.441000
vn -0.063300 -0.848800 0.525000
vn -0.407600 -0.783100 0.469800
vn 0.792300 0.580200 -0.188800
vn 0.535800 0.610900 0.582900
vn 0.345500 0.724900 0.596000
vn 0.203700 0.594200 0.778100
vn -0.227400 0.624000 0.747600
vn -0.678900 0.585500 -0.443100
vn -0.363700 0.656300 -0.661000
vn -0.207400 0.978100 0.019000
vn -0.350700 0.935800 0.035300
vn -0.278900 0.718300 -0.637400
vn 0.500300 0.543300 -0.674200
vn -0.154300 0.618400 -0.770500
vn 0.758000 0.640800 -0.122000
vn 0.453100 0.856200 -0.248300
vn -0.541000 0.621900 0.566100
vn -0.458700 0.771400 0.441000
vn -0.063300 0.848800 0.525000
vn -0.407600 0.783100 0.469800
vn 0.599600 -0.707100 0.374800
vn 0.323000 -0.707100 0.629000
vn 0.385400 -0.707100 0.592900
vn -0.045500 -0.707100 0.705600
vn -0.424300 -0.707100 -0.565700
vn -0.250800 -0.707100 -0.661100
vn -0.126500 -0.707100 0.695700
vn -0.262600 -0.707100 -0.656500
vn 0.034700 -0.707100 -0.706300
vn -0.304000 -0.707100 -0.638400
vn 0.706900 -0.707100 0.016800
vn 0.366200 -0.707100 -0.604900
vn -0.355100 -0.707100 0.611500
vn -0.594800 -0.707100 0.382400
vn -0.405500 -0.707100 0.579300
vn 0.256300 -0.707100 0.659000
vn -0.688600 -0.707100 -0.160700
vn 0.665900 -0.707100 -0.237800
vn 0.599600 0.707100 0.374800
vn 0.323000 0.707100 0.629000
vn 0.385400 0.707100 0.592900
vn -0.045500 0.707100 0.705600
vn -0.424300 0.707100 -0.565700
vn -0.250800 0.707100 -0.661100
vn -0.126500 0.707100 0.695700
vn -0.262600 0.707100 -0.656500
vn 0.034700 0.707100 -0.706200
vn -0.304000 0.707100 -0.638400
vn 0.706900 0.707100 0.016800
vn 0.366200 0.707100 -0.604900
vn -0.355100 0.707100 0.611500
vn -0.594800 0.707100 0.382400
vn -0.405500 0.707100 0.579300
vn 0.256300 0.707100 0.659000
vn -0.688600 0.707100 -0.160700
vn 0.665900 0.707100 -0.237800
vn -0.400900 0.000000 -0.916100
vn -0.995000 -0.000000 0.100200
vn 0.676700 0.000000 0.736200
vn 0.972800 0.000000 -0.231800
vn -0.655300 -0.000000 0.755400
vn -0.119600 -0.000000 0.992800
vn 0.596000 0.000000 -0.803000
vn -0.196400 0.000000 -0.980500
vn 0.501600 0.000000 0.865100
vn -0.837400 -0.000000 -0.546600
vn 0.253200 0.000000 0.967400
vn 0.987300 0.000000 -0.158900
vn 0.876900 0.000000 -0.480600
vn -0.291000 0.000000 0.956700
vn -0.482100 -0.000000 -0.876100
vn -0.690900 0.000000 0.722900
vn -0.995800 0.000000 0.091200
vn -0.720900 0.000000 0.693100
vn 0.848000 0.000000 0.530000
vn -0.354600 -0.000000 -0.935000
vn 0.362500 0.000000 0.932000
vn 0.034700 0.707100 -0.706300
vn -0.720900 0.000000 0.693000
usemtl None
s off
f 2//1 95//1 57//1
f 42//1 95//1 2//1
f 35//2 83//2 90//2
f 23//3 41//3 47//3
f 99//4 96//4 102//4
f 40//5 91//5 94//5
f 10//6 62//6 64//6
f 22//7 74//7 76//7
f 38//8 86//8 93//8
f 13//9 65//9 67//9
f 31//10 88//10 85//10
f 46//11 98//11 100//11
f 43//12 68//12 97//12
f 7//13 59//13 61//13
f 17//14 107//14 72//14
f 16//15 73//15 19//15
f 25//16 77//16 79//16
f 49//17 101//17 103//17
f 28//18 80//18 82//18
f 52//19 104//19 106//19
f 1//20 3//20 2//20
f 4//21 6//21 5//21
f 7//22 9//22 8//22
f 10//23 12//23 11//23
f 13//24 15//24 14//24
f 16//25 18//25 17//25
f 19//26 21//26 20//26
f 22//27 24//27 23//27
f 25//28 27//28 26//28
f 28//29 30//29 29//29
f 31//30 33//30 32//30
f 34//31 36//31 35//31
f 37//32 39//32 38//32
f 40//33 42//33 41//33
f 43//34 45//34 44//34
f 46//35 48//35 47//35
f 49//36 51//36 50//36
f 52//37 54//37 53//37
f 55//38 57//38 56//38
f 58//39 60//39 59//39
f 61//40 63//40 62//40
f 64//41 66//41 65//41
f 67//42 69//42 68//42
f 70//43 72//43 71//43
f 73//44 75//44 74//44
f 76//45 78//45 77//45
f 79//46 81//46 80//46
f 82//47 84//47 83//47
f 85//48 87//48 86//48
f 88//49 90//49 89//49
f 91//50 93//50 92//50
f 94//51 96//51 95//51
f 97//52 99//52 98//52
f 100//53 102//53 101//53
f 103//54 105//54 104//54
f 106//55 108//55 107//55
f 3//56 4//56 5//56
f 5//57 7//57 8//57
f 11//58 9//58 10//58
f 11//59 13//59 14//59
f 18//60 19//60 20//60
f 20//61 22//61 23//61
f 26//62 24//62 25//62
f 26//63 28//63 29//63
f 34//64 32//64 36//64
f 36//65 30//65 35//65
f 39//66 40//66 41//66
f 42//67 3//67 41//67
f 44//68 15//68 43//68
f 44//69 46//69 47//69
f 47//70 49//70 50//70
f 53//71 51//71 52//71
f 17//72 53//72 54//72
f 38//73 32//73 33//73
f 58//74 56//74 60//74
f 61//75 60//75 63//75
f 62//76 66//76 64//76
f 67//77 66//77 69//77
f 73//78 71//78 75//78
f 76//79 75//79 78//79
f 77//80 81//80 79//80
f 82//81 81//81 84//81
f 87//82 88//82 89//82
f 83//83 89//83 90//83
f 94//84 92//84 96//84
f 56//85 95//85 96//85
f 68//86 99//86 97//86
f 100//87 99//87 102//87
f 103//88 102//88 105//88
f 104//89 108//89 106//89
f 108//90 72//90 107//90
f 87//91 93//91 86//91
f 83//92 28//92 82//92
f 25//93 80//93 27//93
f 59//94 4//94 58//94
f 2//95 55//95 1//95
f 107//96 52//96 106//96
f 103//97 51//97 49//97
f 86//98 31//98 85//98
f 35//99 88//99 34//99
f 62//100 7//100 61//100
f 70//101 17//101 72//101
f 65//102 10//102 64//102
f 91//103 38//103 93//103
f 95//104 40//104 94//104
f 68//105 13//105 67//105
f 74//106 19//106 73//106
f 98//107 43//107 97//107
f 77//108 22//108 76//108
f 101//109 46//109 100//109
f 4//110 55//110 58//110
f 30//2 83//2 35//2
f 5//3 41//3 3//3
f 41//3 23//3 39//3
f 32//3 23//3 36//3
f 29//3 23//3 26//3
f 23//3 47//3 20//3
f 18//3 50//3 53//3
f 47//3 41//3 44//3
f 18//3 20//3 50//3
f 36//3 23//3 29//3
f 20//3 47//3 50//3
f 44//3 8//3 14//3
f 8//3 41//3 5//3
f 14//3 8//3 11//3
f 32//3 39//3 23//3
f 8//3 44//3 41//3
f 96//4 60//4 56//4
f 63//4 69//4 66//4
f 96//4 63//4 60//4
f 87//4 78//4 92//4
f 84//4 78//4 89//4
f 78//4 84//4 81//4
f 71//4 105//4 75//4
f 105//4 71//4 108//4
f 69//4 63//4 99//4
f 102//4 75//4 105//4
f 78//4 87//4 89//4
f 102//4 78//4 75//4
f 63//4 96//4 99//4
f 92//4 78//4 96//4
f 102//4 96//4 78//4
f 37//5 91//5 40//5
f 9//6 62//6 10//6
f 21//111 74//111 22//111
f 33//8 86//8 38//8
f 12//9 65//9 13//9
f 34//10 88//10 31//10
f 45//11 98//11 46//11
f 15//12 68//12 43//12
f 6//13 59//13 7//13
f 54//14 107//14 17//14
f 70//15 73//15 16//15
f 24//16 77//16 25//16
f 48//17 101//17 49//17
f 27//18 80//18 28//18
f 51//112 104//112 52//112
f 1//56 4//56 3//56
f 6//57 7//57 5//57
f 8//58 9//58 11//58
f 12//59 13//59 11//59
f 16//60 19//60 18//60
f 21//61 22//61 20//61
f 23//62 24//62 26//62
f 27//63 28//63 26//63
f 31//64 32//64 34//64
f 29//65 30//65 36//65
f 37//66 40//66 39//66
f 2//67 3//67 42//67
f 14//68 15//68 44//68
f 45//69 46//69 44//69
f 48//70 49//70 47//70
f 50//71 51//71 53//71
f 18//72 53//72 17//72
f 39//73 32//73 38//73
f 55//74 56//74 58//74
f 59//75 60//75 61//75
f 63//76 66//76 62//76
f 65//77 66//77 67//77
f 70//78 71//78 73//78
f 74//79 75//79 76//79
f 78//80 81//80 77//80
f 80//81 81//81 82//81
f 85//113 88//113 87//113
f 84//83 89//83 83//83
f 91//84 92//84 94//84
f 57//85 95//85 56//85
f 69//86 99//86 68//86
f 98//87 99//87 100//87
f 101//88 102//88 103//88
f 105//89 108//89 104//89
f 71//90 72//90 108//90
f 92//91 93//91 87//91
f 30//92 28//92 83//92
f 79//93 80//93 25//93
f 6//94 4//94 59//94
f 57//95 55//95 2//95
f 54//96 52//96 107//96
f 104//97 51//97 103//97
f 33//98 31//98 86//98
f 90//99 88//99 35//99
f 9//100 7//100 62//100
f 16//101 17//101 70//101
f 12//102 10//102 65//102
f 37//103 38//103 91//103
f 42//104 40//104 95//104
f 15//105 13//105 68//105
f 21//106 19//106 74//106
f 45//107 43//107 98//107
f 24//108 22//108 77//108
f 48//114 46//114 101//114
f 1//110 55//110 4//110
