# Blender v2.76 (sub 0) OBJ File: 'sverige3.blend'
# www.blender.org
mtllib 17.mtl
o Plane.005_Plane.006
v -2.921783 0.391425 9.401831
v -2.947976 0.391425 9.364802
v -2.903692 0.368597 9.361256
v -2.735868 0.391425 9.398625
v -2.703703 0.368597 9.357807
v -2.658239 0.391425 9.382980
v -2.342555 0.391425 9.256706
v -2.307642 0.368597 9.199383
v -2.266317 0.391425 9.252271
v -1.953597 0.391425 9.336889
v -1.900730 0.368597 9.309489
v -1.878374 0.391425 9.364678
v -2.654311 0.391425 8.503617
v -2.625055 0.391425 8.429199
v -2.597575 0.368597 8.482963
v -2.708037 0.391425 8.603906
v -2.701230 0.368597 8.676451
v -2.766922 0.391425 8.644930
v -2.950109 0.391425 8.710130
v -2.907365 0.391425 8.664436
v -2.909408 0.368597 8.705364
v -2.964760 0.391425 8.915255
v -2.926638 0.368597 8.946582
v -2.948485 0.391425 8.990825
v -2.884830 0.391425 9.108586
v -2.821582 0.368597 9.140935
v -2.879746 0.391425 9.181724
v -2.612761 0.391425 8.382481
v -2.562376 0.391425 8.346636
v -2.572128 0.368597 8.386262
v -2.557413 0.391425 8.347017
v -2.496562 0.391425 8.384625
v -2.541096 0.368597 8.388649
v -2.478973 0.391425 8.413939
v -2.431895 0.391425 8.418037
v -2.464210 0.368597 8.516792
v -2.399386 0.391425 8.380527
v -2.336172 0.391425 8.366318
v -2.362049 0.368597 8.398914
v -2.245943 0.391425 8.406019
v -2.197871 0.391425 8.460894
v -2.242515 0.368597 8.451509
v -2.161306 0.391425 8.586838
v -2.110100 0.391425 8.630203
v -2.181300 0.368597 8.662362
v -2.078595 0.391425 8.633909
v -2.029880 0.391425 8.599315
v -2.007203 0.368597 8.682844
v -2.021118 0.391425 8.559886
v -2.031135 0.391425 8.484962
v -1.969883 0.368597 8.514905
v -2.059206 0.391425 8.431629
v -2.074868 0.391425 8.355865
v -2.036926 0.368597 8.387523
v -2.067929 0.391425 8.265661
v -2.026818 0.391425 8.212296
v -2.026724 0.368597 8.254887
v -1.952053 0.391425 8.186292
v -1.875553 0.391425 8.161227
v -1.901494 0.368597 8.211329
v -1.696784 0.391425 8.106221
v -1.632668 0.391425 8.125420
v -1.672199 0.368597 8.140777
v -1.559364 0.391425 8.214156
v -1.501518 0.391425 8.221039
v -1.540298 0.368597 8.300446
v -1.382334 0.391425 8.131651
v -1.310107 0.391425 8.111847
v -1.338684 0.368597 8.149235
v -1.088528 0.391425 8.135931
v -1.020972 0.391425 8.169651
v -1.067678 0.368597 8.178692
v -0.780975 0.391425 8.425648
v -0.759134 0.391425 8.494870
v -0.796026 0.368597 8.468453
v -0.767419 0.391425 8.552861
v -0.813314 0.391425 8.594831
v -0.808283 0.368597 8.554253
v -0.982076 0.391425 8.603712
v -1.022278 0.391425 8.646086
v -1.062535 0.368597 8.567634
v -1.022278 0.391425 8.749166
v -1.058285 0.391425 8.807428
v -1.062535 0.368597 8.764544
v -1.117410 0.391425 8.836990
v -1.149879 0.391425 8.895096
v -1.195928 0.368597 8.831240
v -1.137285 0.391425 9.037830
v -1.144675 0.391425 9.116678
v -1.174498 0.368597 9.074113
v -1.194946 0.391425 9.294909
v -1.246053 0.391425 9.336166
v -1.236872 0.368597 9.295257
v -1.480431 0.391425 9.350816
v -1.542941 0.391425 9.386823
v -1.543037 0.368597 9.314392
v -1.590077 0.391425 9.457527
v -1.648771 0.391425 9.473749
v -1.626588 0.368597 9.439718
v -2.921783 0.707424 9.401831
v -2.903691 0.730252 9.361256
v -2.947976 0.707424 9.364802
v -2.735868 0.707424 9.398625
v -2.658238 0.707424 9.382980
v -2.703703 0.730252 9.357807
v -2.342555 0.707424 9.256706
v -2.266316 0.707424 9.252271
v -2.307642 0.730252 9.199383
v -1.953596 0.707424 9.336889
v -1.878373 0.707424 9.364678
v -1.900729 0.730252 9.309489
v -2.950108 0.707424 8.710130
v -2.909407 0.730252 8.705364
v -2.907365 0.707424 8.664436
v -2.964760 0.707424 8.915255
v -2.948485 0.707424 8.990825
v -2.926637 0.730252 8.946582
v -2.884830 0.707424 9.108586
v -2.879745 0.707424 9.181724
v -2.821582 0.730252 9.140935
v -2.654310 0.707424 8.503617
v -2.597574 0.730252 8.482963
v -2.625054 0.707424 8.429199
v -2.708036 0.707424 8.603906
v -2.766922 0.707424 8.644930
v -2.701229 0.730252 8.676451
v -2.612760 0.707424 8.382481
v -2.572127 0.730252 8.386262
v -2.562376 0.707424 8.346636
v -2.557413 0.707424 8.347017
v -2.541095 0.730252 8.388649
v -2.496561 0.707424 8.384625
v -2.478973 0.707424 8.413939
v -2.464209 0.730252 8.516792
v -2.431895 0.707424 8.418037
v -2.399385 0.707424 8.380527
v -2.362049 0.730252 8.398914
v -2.336171 0.707424 8.366318
v -2.245943 0.707424 8.406019
v -2.242514 0.730252 8.451509
v -2.197870 0.707424 8.460894
v -2.161306 0.707424 8.586838
v -2.181299 0.730252 8.662362
v -2.110100 0.707424 8.630203
v -2.078594 0.707424 8.633909
v -2.007202 0.730252 8.682844
v -2.029880 0.707424 8.599315
v -2.021118 0.707424 8.559886
v -1.969882 0.730252 8.514905
v -2.031135 0.707424 8.484962
v -2.059205 0.707424 8.431629
v -2.036926 0.730252 8.387523
v -2.074867 0.707424 8.355865
v -2.067928 0.707424 8.265661
v -2.026723 0.730252 8.254887
v -2.026818 0.707424 8.212296
v -1.952053 0.707424 8.186292
v -1.901493 0.730252 8.211329
v -1.875553 0.707424 8.161227
v -1.696784 0.707424 8.106221
v -1.672199 0.730252 8.140777
v -1.632668 0.707424 8.125420
v -1.559363 0.707424 8.214156
v -1.540298 0.730252 8.300446
v -1.501518 0.707424 8.221039
v -1.382334 0.707424 8.131651
v -1.338683 0.730252 8.149235
v -1.310106 0.707424 8.111847
v -1.088527 0.707424 8.135931
v -1.067678 0.730252 8.178692
v -1.020972 0.707424 8.169651
v -0.780974 0.707424 8.425648
v -0.796026 0.730252 8.468453
v -0.759134 0.707424 8.494870
v -0.767418 0.707424 8.552861
v -0.808283 0.730252 8.554253
v -0.813313 0.707424 8.594831
v -0.982075 0.707424 8.603712
v -1.062535 0.730252 8.567634
v -1.022277 0.707424 8.646086
v -1.022277 0.707424 8.749166
v -1.062535 0.730252 8.764544
v -1.058285 0.707424 8.807428
v -1.117410 0.707424 8.836990
v -1.195927 0.730252 8.831240
v -1.149879 0.707424 8.895096
v -1.137285 0.707424 9.037830
v -1.174497 0.730252 9.074113
v -1.144675 0.707424 9.116678
v -1.194945 0.707424 9.294909
v -1.236871 0.730252 9.295257
v -1.246053 0.707424 9.336166
v -1.480431 0.707424 9.350816
v -1.543037 0.730252 9.314392
v -1.542940 0.707424 9.386823
v -1.590077 0.707424 9.457527
v -1.626588 0.730252 9.439718
v -1.648771 0.707424 9.473749
vn -0.937000 0.000000 -0.349200
vn 0.402700 -0.000000 -0.915300
vn 1.000000 -0.000000 0.000000
vn 0.960300 -0.000000 -0.278800
vn 0.447200 -0.000000 0.894400
vn 0.116800 -0.000000 -0.993200
vn 0.000000 -1.000000 0.000000
vn 0.996100 -0.000000 -0.087900
vn -0.976200 0.000000 -0.216900
vn -0.261200 0.000000 0.965300
vn 0.962400 -0.000000 0.271500
vn -0.884900 0.000000 0.465700
vn -0.429100 0.000000 0.903300
vn 0.062400 -0.000000 0.998100
vn -0.997100 0.000000 -0.076700
vn -0.879700 0.000000 0.475500
vn 0.832000 -0.000000 0.554700
vn -0.328500 0.000000 -0.944500
vn 0.076700 -0.000000 -0.997100
vn 0.000000 1.000000 -0.000000
vn -0.294100 0.000000 -0.955800
vn 0.371400 -0.000000 0.928500
vn -0.881500 0.000000 -0.472200
vn 0.771000 -0.000000 -0.636900
vn -0.967100 0.000000 -0.254500
vn -0.600000 0.000000 -0.800000
vn -0.997500 0.000000 -0.071200
vn 0.108100 -0.000000 -0.994100
vn -0.137600 0.000000 -0.990500
vn 0.729500 -0.000000 -0.683900
vn 0.857500 0.000000 -0.514500
vn 0.989900 -0.000000 0.141400
vn -0.755700 0.000000 -0.654900
vn 0.052600 -0.000000 0.998600
vn -0.418800 -0.858400 0.296200
vn 0.110900 -0.827600 0.550200
vn 0.022200 -0.924100 0.381500
vn -0.159500 -0.887700 0.431800
vn -0.419200 -0.892800 -0.164800
vn -0.193600 -0.940900 -0.277900
vn -0.477000 -0.757300 -0.446200
vn -0.583700 -0.802200 0.125700
vn -0.350400 -0.936300 0.024400
vn -0.377200 -0.759300 -0.530300
vn 0.340600 -0.761700 -0.551200
vn 0.019100 -0.975500 -0.219300
vn -0.144300 -0.753100 -0.641900
vn 0.481500 -0.768300 -0.421800
vn 0.198900 -0.951400 -0.234900
vn -0.156600 -0.962700 -0.220600
vn -0.369900 -0.927700 0.049500
vn -0.583800 -0.802900 0.120700
vn -0.521900 -0.752300 -0.402100
vn -0.155700 -0.866000 -0.475200
vn 0.189100 -0.752100 -0.631400
vn 0.031200 -0.964500 -0.262100
vn -0.165300 -0.780500 -0.602900
vn 0.276500 -0.785200 -0.554000
vn 0.612600 -0.766400 -0.193300
vn 0.440000 -0.758300 0.481100
vn 0.192000 -0.964400 0.182100
vn 0.559300 -0.753500 0.345700
vn 0.266000 -0.952400 0.148700
vn 0.558800 -0.827600 0.052400
vn 0.413900 -0.752300 0.512700
vn 0.170500 -0.939900 0.296000
vn 0.172400 -0.762400 0.623800
vn -0.418800 0.858400 0.296200
vn 0.110900 0.827600 0.550200
vn 0.022200 0.924100 0.381500
vn -0.159500 0.887700 0.431800
vn -0.477000 0.757300 -0.446200
vn -0.583700 0.802200 0.125700
vn -0.350400 0.936300 0.024400
vn -0.419200 0.892800 -0.164800
vn -0.193600 0.940900 -0.277900
vn -0.377200 0.759300 -0.530300
vn 0.340600 0.761700 -0.551200
vn 0.019100 0.975500 -0.219200
vn -0.144300 0.753100 -0.641900
vn 0.481500 0.768300 -0.421800
vn 0.198900 0.951400 -0.234900
vn -0.156600 0.962700 -0.220600
vn -0.369900 0.927700 0.049500
vn -0.583800 0.802900 0.120700
vn -0.521900 0.752300 -0.402100
vn -0.155700 0.866000 -0.475200
vn 0.189100 0.752100 -0.631400
vn 0.031200 0.964500 -0.262100
vn -0.165300 0.780500 -0.602900
vn 0.276500 0.785200 -0.554000
vn 0.612600 0.766400 -0.193300
vn 0.440000 0.758300 0.481100
vn 0.192000 0.964400 0.182100
vn 0.559300 0.753500 0.345700
vn 0.266000 0.952400 0.148700
vn 0.558800 0.827600 0.052400
vn 0.413900 0.752300 0.512700
vn 0.170500 0.939900 0.296000
vn 0.172400 0.762400 0.623800
vn 0.008500 -0.869900 0.493200
vn 0.183200 -0.869900 0.458000
vn -0.128800 -0.869900 0.476100
vn -0.492000 -0.869900 -0.035100
vn -0.433900 -0.869900 0.234600
vn -0.462200 -0.869900 -0.172300
vn -0.434800 -0.869900 -0.232900
vn -0.067900 -0.869900 -0.488600
vn -0.477000 -0.869900 -0.125500
vn 0.037800 -0.869900 -0.491800
vn 0.423000 -0.869900 -0.253800
vn -0.372800 -0.869900 -0.323100
vn 0.198700 -0.869900 -0.451500
vn 0.473700 -0.869900 -0.137500
vn 0.057600 -0.869900 -0.489900
vn -0.481500 -0.869900 -0.107000
vn -0.436500 -0.869900 0.229700
vn -0.491800 -0.869900 -0.037800
vn -0.162000 -0.869900 -0.465900
vn -0.145100 -0.869900 -0.471500
vn 0.380300 -0.869900 -0.314200
vn -0.296000 -0.869900 -0.394600
vn 0.053300 -0.869900 -0.490400
vn 0.359900 -0.869900 -0.337400
vn 0.488300 -0.869900 0.069800
vn 0.025900 -0.869900 0.492600
vn 0.493300 -0.869900 0.000000
vn 0.220600 -0.869900 0.441200
vn 0.491400 -0.869900 -0.043400
vn 0.474800 -0.869900 0.133900
vn 0.030800 -0.869900 0.492300
vn 0.410400 -0.869900 0.273600
vn -0.211700 -0.869900 0.445600
vn 0.008500 0.869900 0.493200
vn 0.183200 0.869900 0.458000
vn -0.128800 0.869900 0.476100
vn -0.492000 0.869900 -0.035100
vn -0.433900 0.869900 0.234600
vn -0.462200 0.869900 -0.172300
vn -0.434800 0.869900 -0.232900
vn -0.067900 0.869900 -0.488600
vn -0.477000 0.869900 -0.125500
vn 0.037800 0.869900 -0.491800
vn 0.423000 0.869900 -0.253800
vn -0.372800 0.869900 -0.323100
vn 0.198700 0.869900 -0.451500
vn 0.473700 0.869900 -0.137500
vn 0.057600 0.869900 -0.489900
vn -0.481500 0.869900 -0.107000
vn -0.436500 0.869900 0.229700
vn -0.491800 0.869900 -0.037800
vn -0.162000 0.869900 -0.465900
vn -0.145100 0.869900 -0.471400
vn 0.380300 0.869900 -0.314200
vn -0.296000 0.869900 -0.394600
vn 0.053300 0.869900 -0.490400
vn 0.359900 0.869900 -0.337400
vn 0.488300 0.869900 0.069800
vn 0.025900 0.869900 0.492600
vn 0.493300 0.869900 0.000000
vn 0.220600 0.869900 0.441200
vn 0.491400 0.869900 -0.043400
vn 0.474700 0.869900 0.133900
vn 0.030800 0.869900 0.492300
vn 0.410400 0.869900 0.273600
vn -0.211700 0.869900 0.445500
vn 0.086700 -0.000000 -0.996200
vn -0.219300 0.000000 -0.975700
vn 0.674800 -0.000000 0.738000
vn 0.725500 -0.000000 0.688300
vn 0.752200 -0.000000 -0.659000
vn 0.850700 -0.000000 0.525700
vn 0.646300 -0.000000 -0.763100
vn 0.197600 -0.000000 0.980300
vn -0.816400 0.000000 0.577500
vn 0.873000 -0.000000 0.487800
vn -0.579000 0.000000 -0.815300
vn 0.058100 -0.000000 0.998300
vn 0.995600 -0.000000 0.093300
vn -0.991200 0.000000 0.132500
vn -0.346500 0.000000 0.938000
vn 0.628100 -0.000000 0.778100
vn -0.979300 0.000000 0.202400
vn -0.977600 0.000000 0.210500
vn -0.730300 0.000000 -0.683100
vn 0.499100 -0.000000 0.866500
vn -0.792200 0.000000 -0.610300
vn -0.997600 0.000000 0.069400
vn 0.266400 -0.000000 0.963900
vn -0.311400 0.000000 -0.950300
vn 0.286800 -0.000000 -0.958000
vn -0.571600 0.000000 -0.820500
vn -0.930700 0.000000 -0.365900
vn 0.118100 -0.000000 -0.993000
vn -0.264400 0.000000 -0.964400
vn -0.579700 0.000000 -0.814800
vn 0.446600 -0.000000 -0.894700
vn 0.525700 -0.000000 -0.850600
vn 0.953700 -0.000000 -0.300900
vn 0.017200 -0.000000 0.999900
vn 0.962500 -0.000000 0.271500
vn 0.832100 -0.000000 0.554700
vn 0.052500 -0.000000 0.998600
vn 0.057700 -0.869900 -0.489900
vn -0.162100 -0.869900 -0.465900
vn 0.474700 -0.869900 0.133900
vn 0.057700 0.869900 -0.489900
vn -0.145100 0.869900 -0.471500
vn 0.086800 -0.000000 -0.996200
vn -0.346600 0.000000 0.938000
vn 0.286900 -0.000000 -0.958000
vn 0.118200 -0.000000 -0.993000
usemtl None
s off
f 27//1 2//1 102//1
f 119//1 27//1 102//1
f 40//2 38//2 138//2
f 80//3 180//3 181//3
f 41//4 141//4 142//4
f 83//5 183//5 184//5
f 44//6 144//6 145//6
f 48//7 11//7 8//7
f 86//8 186//8 187//8
f 47//9 147//9 148//9
f 10//10 109//10 107//10
f 89//11 189//11 190//11
f 50//12 150//12 151//12
f 98//13 198//13 110//13
f 92//14 192//14 193//14
f 53//15 153//15 154//15
f 25//16 118//16 116//16
f 95//17 195//17 196//17
f 58//18 56//18 156//18
f 29//19 129//19 130//19
f 185//20 164//20 146//20
f 61//21 59//21 159//21
f 7//22 106//22 104//22
f 16//23 124//23 121//23
f 62//24 162//24 163//24
f 14//25 123//25 127//25
f 67//26 65//26 165//26
f 22//27 115//27 112//27
f 70//28 68//28 168//28
f 18//29 20//29 114//29
f 73//30 71//30 171//30
f 32//31 132//31 133//31
f 74//32 174//32 175//32
f 35//33 135//33 136//33
f 77//34 177//34 178//34
f 1//35 2//35 3//35
f 4//36 5//36 6//36
f 7//37 8//37 9//37
f 10//38 11//38 12//38
f 13//39 14//39 15//39
f 16//40 17//40 18//40
f 19//41 20//41 21//41
f 22//42 23//42 24//42
f 25//43 26//43 27//43
f 28//44 29//44 30//44
f 31//45 32//45 33//45
f 34//46 35//46 36//46
f 37//47 38//47 39//47
f 40//48 41//48 42//48
f 43//49 44//49 45//49
f 46//50 47//50 48//50
f 49//51 50//51 51//51
f 52//52 53//52 54//52
f 55//53 56//53 57//53
f 58//54 59//54 60//54
f 61//55 62//55 63//55
f 64//56 65//56 66//56
f 67//57 68//57 69//57
f 70//58 71//58 72//58
f 73//59 74//59 75//59
f 76//60 77//60 78//60
f 79//61 80//61 81//61
f 82//62 83//62 84//62
f 85//63 86//63 87//63
f 88//64 89//64 90//64
f 91//65 92//65 93//65
f 94//66 95//66 96//66
f 97//67 98//67 99//67
f 100//68 101//68 102//68
f 103//69 104//69 105//69
f 106//70 107//70 108//70
f 109//71 110//71 111//71
f 112//72 113//72 114//72
f 115//73 116//73 117//73
f 118//74 119//74 120//74
f 121//75 122//75 123//75
f 124//76 125//76 126//76
f 127//77 128//77 129//77
f 130//78 131//78 132//78
f 133//79 134//79 135//79
f 136//80 137//80 138//80
f 139//81 140//81 141//81
f 142//82 143//82 144//82
f 145//83 146//83 147//83
f 148//84 149//84 150//84
f 151//85 152//85 153//85
f 154//86 155//86 156//86
f 157//87 158//87 159//87
f 160//88 161//88 162//88
f 163//89 164//89 165//89
f 166//90 167//90 168//90
f 169//91 170//91 171//91
f 172//92 173//92 174//92
f 175//93 176//93 177//93
f 178//94 179//94 180//94
f 181//95 182//95 183//95
f 184//96 185//96 186//96
f 187//97 188//97 189//97
f 190//98 191//98 192//98
f 193//99 194//99 195//99
f 196//100 197//100 198//100
f 3//101 5//101 4//101
f 5//102 8//102 7//102
f 11//103 10//103 9//103
f 21//104 23//104 22//104
f 23//105 26//105 25//105
f 27//106 26//106 3//106
f 15//107 17//107 16//107
f 21//108 20//108 18//108
f 14//109 28//109 30//109
f 31//110 33//110 30//110
f 34//111 36//111 33//111
f 35//112 37//112 39//112
f 40//113 42//113 39//113
f 43//114 45//114 42//114
f 46//115 48//115 45//115
f 47//116 49//116 51//116
f 50//117 52//117 54//117
f 53//118 55//118 57//118
f 58//119 60//119 57//119
f 59//120 61//120 63//120
f 64//121 66//121 63//121
f 65//122 67//122 69//122
f 70//123 72//123 69//123
f 71//124 73//124 75//124
f 74//125 76//125 78//125
f 79//126 81//126 78//126
f 80//127 82//127 84//127
f 85//128 87//128 84//128
f 86//129 88//129 90//129
f 89//130 91//130 93//130
f 94//131 96//131 93//131
f 95//132 97//132 99//132
f 99//133 98//133 12//133
f 103//134 105//134 101//134
f 106//135 108//135 105//135
f 107//136 109//136 111//136
f 115//137 117//137 113//137
f 118//138 120//138 117//138
f 101//139 120//139 119//139
f 124//140 126//140 122//140
f 125//141 114//141 113//141
f 128//142 127//142 123//142
f 128//143 131//143 130//143
f 131//144 134//144 133//144
f 137//145 136//145 135//145
f 137//146 140//146 139//146
f 140//147 143//147 142//147
f 143//148 146//148 145//148
f 149//149 148//149 147//149
f 152//150 151//150 150//150
f 155//151 154//151 153//151
f 155//152 158//152 157//152
f 161//153 160//153 159//153
f 161//154 164//154 163//154
f 167//155 166//155 165//155
f 167//156 170//156 169//156
f 173//157 172//157 171//157
f 176//158 175//158 174//158
f 176//159 179//159 178//159
f 182//160 181//160 180//160
f 182//161 185//161 184//161
f 188//162 187//162 186//162
f 191//163 190//163 189//163
f 191//164 194//164 193//164
f 197//165 196//165 195//165
f 110//166 198//166 197//166
f 133//167 135//167 35//167
f 38//168 37//168 136//168
f 76//169 175//169 177//169
f 180//170 80//170 79//170
f 41//171 40//171 139//171
f 183//172 83//172 82//172
f 44//173 43//173 142//173
f 6//174 104//174 103//174
f 2//175 1//175 100//175
f 186//176 86//176 85//176
f 47//177 46//177 145//177
f 9//178 107//178 106//178
f 89//179 88//179 187//179
f 50//180 49//180 148//180
f 12//181 110//181 109//181
f 192//182 92//182 91//182
f 53//183 52//183 151//183
f 116//184 115//184 22//184
f 20//185 19//185 112//185
f 95//186 94//186 193//186
f 56//187 55//187 154//187
f 119//188 118//188 25//188
f 198//189 98//189 97//189
f 59//190 58//190 157//190
f 62//191 61//191 160//191
f 125//192 124//192 16//192
f 14//193 13//193 121//193
f 165//194 65//194 64//194
f 68//195 67//195 166//195
f 29//196 28//196 127//196
f 71//197 70//197 169//197
f 32//198 31//198 130//198
f 74//199 73//199 172//199
f 4//200 103//200 100//200
f 139//2 40//2 138//2
f 82//3 80//3 181//3
f 43//4 41//4 142//4
f 85//5 83//5 184//5
f 46//6 44//6 145//6
f 26//7 23//7 17//7
f 5//7 3//7 26//7
f 96//7 99//7 11//7
f 8//7 5//7 26//7
f 96//7 11//7 48//7
f 90//7 93//7 96//7
f 81//7 84//7 87//7
f 87//7 90//7 96//7
f 8//7 26//7 17//7
f 87//7 96//7 48//7
f 75//7 78//7 81//7
f 81//7 87//7 66//7
f 23//7 21//7 17//7
f 15//7 30//7 33//7
f 8//7 17//7 45//7
f 72//7 75//7 81//7
f 17//7 15//7 36//7
f 72//7 81//7 69//7
f 66//7 69//7 81//7
f 60//7 63//7 66//7
f 54//7 57//7 60//7
f 39//7 42//7 36//7
f 51//7 54//7 60//7
f 36//7 42//7 45//7
f 48//7 51//7 66//7
f 15//7 33//7 36//7
f 51//7 60//7 66//7
f 17//7 36//7 45//7
f 48//7 66//7 87//7
f 8//7 45//7 48//7
f 88//8 86//8 187//8
f 49//9 47//9 148//9
f 9//10 10//10 107//10
f 91//201 89//201 190//201
f 52//12 50//12 151//12
f 12//13 98//13 110//13
f 94//14 92//14 193//14
f 55//15 53//15 154//15
f 24//16 25//16 116//16
f 97//202 95//202 196//202
f 157//18 58//18 156//18
f 31//19 29//19 130//19
f 120//20 101//20 105//20
f 113//20 117//20 126//20
f 131//20 128//20 122//20
f 126//20 117//20 120//20
f 131//20 122//20 134//20
f 140//20 137//20 134//20
f 134//20 122//20 126//20
f 126//20 120//20 108//20
f 111//20 197//20 194//20
f 120//20 105//20 108//20
f 108//20 111//20 146//20
f 194//20 191//20 188//20
f 185//20 182//20 179//20
f 194//20 188//20 185//20
f 126//20 108//20 143//20
f 140//20 134//20 143//20
f 155//20 152//20 158//20
f 143//20 134//20 126//20
f 158//20 152//20 149//20
f 146//20 143//20 108//20
f 158//20 149//20 164//20
f 164//20 161//20 158//20
f 170//20 167//20 179//20
f 176//20 173//20 179//20
f 194//20 185//20 146//20
f 179//20 173//20 170//20
f 164//20 149//20 146//20
f 179//20 167//20 164//20
f 146//20 111//20 194//20
f 185//20 179//20 164//20
f 160//21 61//21 159//21
f 6//22 7//22 104//22
f 13//23 16//23 121//23
f 64//24 62//24 163//24
f 28//25 14//25 127//25
f 166//26 67//26 165//26
f 19//27 22//27 112//27
f 169//28 70//28 168//28
f 125//29 18//29 114//29
f 172//30 73//30 171//30
f 34//31 32//31 133//31
f 76//32 74//32 175//32
f 37//33 35//33 136//33
f 79//203 77//203 178//203
f 1//101 3//101 4//101
f 6//102 5//102 7//102
f 8//103 11//103 9//103
f 19//104 21//104 22//104
f 24//105 23//105 25//105
f 2//106 27//106 3//106
f 13//107 15//107 16//107
f 17//108 21//108 18//108
f 15//109 14//109 30//109
f 29//110 31//110 30//110
f 32//111 34//111 33//111
f 36//112 35//112 39//112
f 38//113 40//113 39//113
f 41//114 43//114 42//114
f 44//204 46//204 45//204
f 48//116 47//116 51//116
f 51//117 50//117 54//117
f 54//118 53//118 57//118
f 56//205 58//205 57//205
f 60//120 59//120 63//120
f 62//121 64//121 63//121
f 66//122 65//122 69//122
f 68//123 70//123 69//123
f 72//124 71//124 75//124
f 75//125 74//125 78//125
f 77//126 79//126 78//126
f 81//127 80//127 84//127
f 83//128 85//128 84//128
f 87//129 86//129 90//129
f 90//206 89//206 93//206
f 92//131 94//131 93//131
f 96//132 95//132 99//132
f 11//133 99//133 12//133
f 100//134 103//134 101//134
f 104//135 106//135 105//135
f 108//136 107//136 111//136
f 112//137 115//137 113//137
f 116//138 118//138 117//138
f 102//139 101//139 119//139
f 121//140 124//140 122//140
f 126//141 125//141 113//141
f 122//142 128//142 123//142
f 129//143 128//143 130//143
f 132//144 131//144 133//144
f 134//145 137//145 135//145
f 138//146 137//146 139//146
f 141//147 140//147 142//147
f 144//207 143//207 145//207
f 146//149 149//149 147//149
f 149//150 152//150 150//150
f 152//151 155//151 153//151
f 156//152 155//152 157//152
f 158//208 161//208 159//208
f 162//154 161//154 163//154
f 164//155 167//155 165//155
f 168//156 167//156 169//156
f 170//157 173//157 171//157
f 173//158 176//158 174//158
f 177//159 176//159 178//159
f 179//160 182//160 180//160
f 183//161 182//161 184//161
f 185//162 188//162 186//162
f 188//163 191//163 189//163
f 192//164 191//164 193//164
f 194//165 197//165 195//165
f 111//166 110//166 197//166
f 34//209 133//209 35//209
f 138//168 38//168 136//168
f 77//169 76//169 177//169
f 178//170 180//170 79//170
f 141//171 41//171 139//171
f 181//172 183//172 82//172
f 144//173 44//173 142//173
f 4//174 6//174 103//174
f 102//175 2//175 100//175
f 184//176 186//176 85//176
f 147//177 47//177 145//177
f 7//178 9//178 106//178
f 189//179 89//179 187//179
f 150//180 50//180 148//180
f 10//210 12//210 109//210
f 190//182 192//182 91//182
f 153//183 53//183 151//183
f 24//184 116//184 22//184
f 114//185 20//185 112//185
f 195//186 95//186 193//186
f 156//187 56//187 154//187
f 27//188 119//188 25//188
f 196//189 198//189 97//189
f 159//190 59//190 157//190
f 162//211 62//211 160//211
f 18//192 125//192 16//192
f 123//193 14//193 121//193
f 163//212 165//212 64//212
f 168//195 68//195 166//195
f 129//196 29//196 127//196
f 171//197 71//197 169//197
f 132//198 32//198 130//198
f 174//199 74//199 172//199
f 1//200 4//200 100//200
