# Blender v2.76 (sub 0) OBJ File: 'sverige3.blend'
# www.blender.org
mtllib 20.mtl
o Plane.004_Plane.005
v -1.951182 0.397222 9.382331
v -1.869141 0.397222 9.369064
v -1.904948 0.368597 9.407940
v -1.988533 0.397222 9.418125
v -1.974499 0.368597 9.474594
v -2.024979 0.397222 9.503531
v -2.024979 0.397222 9.646025
v -1.974499 0.368597 9.657722
v -1.976204 0.397222 9.709510
v -1.935951 0.397222 9.720244
v -1.838553 0.368597 9.693974
v -1.884717 0.397222 9.783669
v -1.880449 0.397222 9.871161
v -1.826683 0.368597 9.937304
v -1.908277 0.397222 9.961964
v -1.902823 0.397222 9.954692
v -1.863711 0.368597 9.986674
v -1.894062 0.397222 10.027065
v -0.604222 0.397222 9.643023
v -0.654212 0.368597 9.635669
v -0.644624 0.397222 9.586060
v -0.617941 0.397222 9.714364
v -0.660081 0.397222 9.802470
v -0.674549 0.368597 9.741420
v -0.666995 0.397222 9.810640
v -0.720103 0.397222 9.895305
v -0.742799 0.368597 9.822079
v -0.705328 0.397222 9.862061
v -0.776309 0.397222 9.908189
v -0.758635 0.368597 9.857710
v -0.832718 0.397222 9.908189
v -0.877623 0.397222 9.858019
v -0.826799 0.368597 9.857710
v -0.875658 0.397222 9.840334
v -0.920563 0.397222 9.790163
v -0.813685 0.368597 9.739684
v -1.311379 0.397222 9.790163
v -1.412009 0.397222 9.795918
v -1.364746 0.368597 9.739684
v -1.711685 0.397222 9.830307
v -1.755376 0.397222 9.886127
v -1.818451 0.368597 9.791748
v -1.742068 0.397222 9.989264
v -1.784745 0.397222 10.050891
v -1.791500 0.368597 10.000623
v -1.797939 0.397222 10.053995
v -1.886125 0.397222 10.033567
v -1.834371 0.368597 10.010710
v -1.256255 0.397222 9.336804
v -1.155849 0.397222 9.326896
v -1.200914 0.368597 9.383924
v -1.470229 0.397222 9.350178
v -1.492488 0.368597 9.402146
v -1.548611 0.397222 9.395328
v -1.584407 0.397222 9.449022
v -1.594628 0.368597 9.555355
v -1.658004 0.397222 9.469363
v -0.936511 0.397222 9.343677
v -0.988800 0.368597 9.355259
v -1.013289 0.397222 9.307631
v -0.826094 0.397222 9.520345
v -0.749405 0.397222 9.570544
v -0.829792 0.368597 9.609672
v -1.951182 0.701627 9.382331
v -1.904947 0.730252 9.407940
v -1.869141 0.701627 9.369064
v -1.988533 0.701627 9.418125
v -2.024978 0.701627 9.503531
v -1.974499 0.730252 9.474594
v -2.024978 0.701627 9.646025
v -1.976204 0.701627 9.709510
v -1.974499 0.730252 9.657722
v -1.935951 0.701627 9.720244
v -1.884717 0.701627 9.783669
v -1.838553 0.730252 9.693974
v -1.880449 0.701627 9.871161
v -1.908277 0.701627 9.961964
v -1.826683 0.730252 9.937304
v -1.902823 0.701627 9.954692
v -1.894062 0.701627 10.027065
v -1.863710 0.730252 9.986674
v -0.604222 0.701627 9.643023
v -0.644624 0.701627 9.586060
v -0.654212 0.730252 9.635669
v -0.617941 0.701627 9.714364
v -0.674549 0.730252 9.741420
v -0.660081 0.701627 9.802470
v -0.666995 0.701627 9.810640
v -0.742798 0.730252 9.822079
v -0.720103 0.701627 9.895305
v -0.705328 0.701627 9.862061
v -0.758634 0.730252 9.857710
v -0.776308 0.701627 9.908189
v -0.832718 0.701627 9.908189
v -0.826798 0.730252 9.857710
v -0.877623 0.701627 9.858019
v -0.875658 0.701627 9.840334
v -0.813684 0.730252 9.739684
v -0.920562 0.701627 9.790163
v -1.311379 0.701627 9.790163
v -1.364746 0.730252 9.739684
v -1.412008 0.701627 9.795918
v -1.711685 0.701627 9.830307
v -1.818451 0.730252 9.791748
v -1.755375 0.701627 9.886127
v -1.742067 0.701627 9.989264
v -1.791499 0.730252 10.000623
v -1.784745 0.701627 10.050891
v -1.797939 0.701627 10.053995
v -1.834371 0.730252 10.010710
v -1.886125 0.701627 10.033567
v -1.256255 0.701627 9.336804
v -1.200913 0.730252 9.383924
v -1.155849 0.701627 9.326896
v -1.470229 0.701627 9.350178
v -1.548611 0.701627 9.395328
v -1.492488 0.730252 9.402146
v -1.584407 0.701627 9.449022
v -1.658004 0.701627 9.469363
v -1.594627 0.730252 9.555355
v -0.936511 0.701627 9.343677
v -1.013289 0.701627 9.307631
v -0.988799 0.730252 9.355259
v -0.826094 0.701627 9.520345
v -0.829792 0.730252 9.609672
v -0.749405 0.701627 9.570544
vn 0.429100 -0.000000 -0.903300
vn 0.763300 -0.000000 0.646000
vn 0.982000 -0.000000 0.188800
vn -0.062400 0.000000 -0.998100
vn -0.913800 0.000000 -0.406100
vn 0.146500 -0.000000 -0.989200
vn 0.000000 0.000000 1.000000
vn 0.000000 -1.000000 -0.000000
vn -0.133900 0.000000 -0.991000
vn -0.993900 0.000000 -0.110400
vn -0.257600 0.000000 0.966200
vn 0.848000 -0.000000 -0.530000
vn -0.998800 0.000000 0.048700
vn 0.000000 1.000000 -0.000000
vn 0.114000 -0.000000 0.993500
vn 0.800000 0.000000 0.599900
vn -0.832100 0.000000 -0.554700
vn 0.991800 -0.000000 -0.128000
vn -0.633800 0.000000 0.773500
vn -1.000000 0.000000 0.000000
vn 0.228900 -0.000000 0.973400
vn -0.105200 -0.752000 -0.650700
vn -0.581600 -0.774700 -0.248200
vn -0.520500 -0.754500 0.399900
vn -0.230500 -0.955100 0.186200
vn -0.358400 -0.927100 -0.109800
vn -0.628700 -0.773900 0.076100
vn 0.503200 -0.787100 -0.356900
vn 0.530300 -0.809000 0.253600
vn 0.374200 -0.897100 0.234700
vn 0.359000 -0.752400 0.552300
vn -0.447800 -0.799300 0.400800
vn -0.182500 -0.969500 0.163400
vn 0.027000 -0.881500 0.471400
vn 0.202000 -0.966500 0.158100
vn 0.527900 -0.766600 0.365600
vn -0.145500 -0.764500 0.628000
vn -0.047100 -0.877300 -0.477600
vn -0.321900 -0.764300 -0.558800
vn -0.073500 -0.961200 -0.265800
vn 0.279900 -0.752500 -0.596200
vn 0.191400 -0.937000 -0.292300
vn -0.105200 0.752100 -0.650700
vn -0.581600 0.774700 -0.248200
vn -0.520500 0.754500 0.399900
vn -0.230500 0.955100 0.186200
vn -0.358400 0.927100 -0.109800
vn -0.628700 0.774000 0.076100
vn 0.503200 0.787100 -0.356900
vn 0.530300 0.809000 0.253600
vn 0.374200 0.897100 0.234700
vn 0.358900 0.752400 0.552300
vn -0.447800 0.799300 0.400800
vn -0.182500 0.969500 0.163400
vn 0.027000 0.881500 0.471400
vn 0.202000 0.966500 0.158100
vn 0.527900 0.766600 0.365600
vn -0.145500 0.764500 0.628000
vn -0.047100 0.877300 -0.477600
vn -0.321900 0.764300 -0.558800
vn -0.073500 0.961200 -0.265800
vn 0.279900 0.752500 -0.596200
vn 0.191400 0.937000 -0.292300
vn -0.341300 -0.869900 -0.356100
vn -0.493300 -0.869900 0.000000
vn -0.127100 -0.869900 0.476600
vn -0.492700 -0.869900 0.024000
vn -0.394600 -0.869900 -0.296000
vn 0.484400 -0.869900 0.093200
vn 0.376600 -0.869900 0.318600
vn -0.450800 0.869900 -0.200300
vn 0.000000 -0.869900 0.493300
vn -0.490300 -0.869900 -0.054500
vn 0.056200 -0.869900 0.490100
vn 0.489200 -0.869900 -0.063100
vn 0.113000 -0.869900 0.480200
vn -0.312600 -0.869900 0.381600
vn -0.030800 -0.869900 -0.492300
vn -0.410400 -0.869900 -0.273600
vn 0.418300 -0.869900 -0.261400
vn -0.066100 -0.869900 -0.488800
vn 0.211700 -0.869900 -0.445600
vn 0.072200 -0.869900 -0.488000
vn -0.341300 0.869900 -0.356100
vn -0.493300 0.869900 0.000000
vn -0.127100 0.869900 0.476600
vn -0.492700 0.869900 0.024000
vn 0.394600 -0.869900 0.296000
vn 0.484400 0.869900 0.093200
vn 0.376600 0.869900 0.318600
vn 0.450800 0.869900 0.200300
vn 0.000000 0.869900 0.493300
vn -0.490300 0.869900 -0.054500
vn 0.056200 0.869900 0.490100
vn 0.489200 0.869900 -0.063100
vn 0.113000 0.869900 0.480200
vn -0.312600 0.869900 0.381600
vn -0.030800 0.869900 -0.492300
vn -0.410400 0.869900 -0.273600
vn 0.418300 0.869900 -0.261400
vn -0.066100 0.869900 -0.488800
vn 0.211700 0.869900 -0.445600
vn 0.072200 0.869900 -0.487900
vn 0.815700 -0.000000 -0.578500
vn 0.902100 -0.000000 0.431500
vn 0.547700 -0.000000 -0.836700
vn 0.822100 -0.000000 0.569300
vn -0.225700 0.000000 0.974200
vn 0.847100 -0.000000 0.531400
vn -0.992800 0.000000 0.120200
vn 0.544900 -0.000000 0.838500
vn -0.919800 0.000000 -0.392500
vn -0.159600 0.000000 -0.987200
vn -0.499200 0.000000 -0.866500
vn -0.098200 0.000000 -0.995200
vn -0.745100 0.000000 0.666900
vn -0.793000 0.000000 0.609200
vn -0.266400 0.000000 -0.963900
vn -0.777900 0.000000 0.628400
vn 0.425000 -0.000000 -0.905200
vn 0.057100 -0.000000 0.998400
vn -0.956100 0.000000 -0.293000
vn 0.787500 -0.000000 0.616300
vn -0.691900 0.000000 -0.722000
vn 0.763400 -0.000000 0.646000
vn -0.257700 0.000000 0.966200
vn 0.799900 -0.000000 0.600100
vn 0.229100 -0.000000 0.973400
vn 0.394700 0.869800 0.296000
vn 0.376500 -0.869900 0.318600
vn 0.450700 -0.869900 0.200300
vn 0.072300 -0.869900 -0.488000
vn -0.394600 0.869900 -0.296000
vn 0.376500 0.869900 0.318600
vn -0.450800 -0.869900 -0.200300
vn -0.312500 0.869900 0.381600
vn 0.072300 0.869900 -0.488000
vn -0.499100 0.000000 -0.866500
vn 0.787500 -0.000000 0.616400
usemtl None
s off
f 57//1 2//1 66//1
f 119//1 57//1 66//1
f 23//2 87//2 88//2
f 19//3 82//3 85//3
f 49//4 52//4 115//4
f 26//5 90//5 91//5
f 62//6 126//6 83//6
f 29//7 93//7 94//7
f 63//8 39//8 51//8
f 60//9 50//9 114//9
f 32//10 96//10 97//10
f 10//11 73//11 71//11
f 61//12 58//12 121//12
f 35//7 99//7 100//7
f 13//13 76//13 74//13
f 104//14 101//14 120//14
f 40//15 38//15 102//15
f 16//16 79//16 77//16
f 55//17 118//17 116//17
f 41//18 105//18 106//18
f 47//19 111//19 80//19
f 7//20 70//20 68//20
f 44//21 108//21 109//21
f 1//22 2//22 3//22
f 4//23 5//23 6//23
f 7//24 8//24 9//24
f 10//25 11//25 12//25
f 13//26 14//26 15//26
f 16//27 17//27 18//27
f 19//28 20//28 21//28
f 22//29 23//29 24//29
f 25//30 26//30 27//30
f 28//31 29//31 30//31
f 31//32 32//32 33//32
f 34//33 35//33 36//33
f 37//34 38//34 39//34
f 40//35 41//35 42//35
f 43//36 44//36 45//36
f 46//37 47//37 48//37
f 49//38 50//38 51//38
f 52//39 53//39 54//39
f 55//40 56//40 57//40
f 58//41 59//41 60//41
f 61//42 62//42 63//42
f 64//43 65//43 66//43
f 67//44 68//44 69//44
f 70//45 71//45 72//45
f 73//46 74//46 75//46
f 76//47 77//47 78//47
f 79//48 80//48 81//48
f 82//49 83//49 84//49
f 85//50 86//50 87//50
f 88//51 89//51 90//51
f 91//52 92//52 93//52
f 94//53 95//53 96//53
f 97//54 98//54 99//54
f 100//55 101//55 102//55
f 103//56 104//56 105//56
f 106//57 107//57 108//57
f 109//58 110//58 111//58
f 112//59 113//59 114//59
f 115//60 116//60 117//60
f 118//61 119//61 120//61
f 121//62 122//62 123//62
f 124//63 125//63 126//63
f 3//64 5//64 4//64
f 8//65 7//65 6//65
f 8//66 11//66 10//66
f 14//67 13//67 12//67
f 14//68 17//68 16//68
f 22//69 24//69 20//69
f 25//70 27//70 24//70
f 26//71 28//71 30//71
f 29//72 31//72 33//72
f 34//73 36//73 33//73
f 35//72 37//72 39//72
f 40//74 42//74 39//74
f 41//75 43//75 45//75
f 46//76 48//76 45//76
f 17//77 48//77 47//77
f 53//78 52//78 49//78
f 53//79 56//79 55//79
f 61//80 63//80 59//80
f 50//81 60//81 59//81
f 57//82 56//82 3//82
f 20//83 63//83 62//83
f 67//84 69//84 65//84
f 68//85 70//85 72//85
f 73//86 75//86 72//86
f 74//87 76//87 78//87
f 77//88 79//88 81//88
f 84//89 86//89 85//89
f 86//90 89//90 88//90
f 89//91 92//91 91//91
f 95//92 94//92 93//92
f 95//93 98//93 97//93
f 101//92 100//92 99//92
f 101//94 104//94 103//94
f 107//95 106//95 105//95
f 107//96 110//96 109//96
f 111//97 110//97 81//97
f 112//98 115//98 117//98
f 118//99 120//99 117//99
f 123//100 125//100 124//100
f 123//101 122//101 114//101
f 65//102 120//102 119//102
f 126//103 125//103 84//103
f 83//104 82//104 19//104
f 23//105 22//105 85//105
f 124//106 126//106 62//106
f 106//107 108//107 44//107
f 111//108 47//108 46//108
f 90//109 26//109 25//109
f 16//110 18//110 80//110
f 93//111 29//111 28//111
f 68//112 67//112 4//112
f 2//113 1//113 64//113
f 116//114 115//114 52//114
f 50//115 49//115 112//115
f 32//116 31//116 94//116
f 9//117 71//117 70//117
f 119//118 118//118 55//118
f 99//116 35//116 34//116
f 12//119 74//119 73//119
f 122//120 121//120 58//120
f 102//121 38//121 37//121
f 77//122 76//122 13//122
f 41//123 40//123 103//123
f 4//124 67//124 64//124
f 25//125 23//125 88//125
f 22//3 19//3 85//3
f 112//4 49//4 115//4
f 28//5 26//5 91//5
f 21//6 62//6 83//6
f 31//7 29//7 94//7
f 56//8 53//8 39//8
f 5//8 3//8 11//8
f 11//8 8//8 5//8
f 48//8 17//8 14//8
f 11//8 3//8 56//8
f 45//8 48//8 14//8
f 11//8 56//8 42//8
f 45//8 14//8 42//8
f 30//8 33//8 27//8
f 42//8 14//8 11//8
f 27//8 33//8 36//8
f 39//8 42//8 56//8
f 24//8 27//8 36//8
f 36//8 39//8 63//8
f 53//8 51//8 39//8
f 63//8 20//8 36//8
f 51//8 59//8 63//8
f 24//8 36//8 20//8
f 122//9 60//9 114//9
f 34//10 32//10 97//10
f 9//126 10//126 71//126
f 124//12 61//12 121//12
f 37//7 35//7 100//7
f 12//13 13//13 74//13
f 120//14 65//14 75//14
f 113//14 117//14 101//14
f 125//14 123//14 113//14
f 86//14 84//14 98//14
f 95//14 92//14 89//14
f 89//14 86//14 98//14
f 125//14 113//14 101//14
f 65//14 69//14 75//14
f 78//14 81//14 110//14
f 69//14 72//14 75//14
f 78//14 110//14 107//14
f 117//14 120//14 101//14
f 75//14 78//14 104//14
f 98//14 95//14 89//14
f 78//14 107//14 104//14
f 98//14 84//14 125//14
f 75//14 104//14 120//14
f 101//14 98//14 125//14
f 103//15 40//15 102//15
f 15//127 16//127 77//127
f 54//17 55//17 116//17
f 43//18 41//18 106//18
f 18//19 47//19 80//19
f 6//20 7//20 68//20
f 46//128 44//128 109//128
f 1//64 3//64 4//64
f 5//65 8//65 6//65
f 9//66 8//66 10//66
f 11//67 14//67 12//67
f 15//129 14//129 16//129
f 19//69 22//69 20//69
f 23//130 25//130 24//130
f 27//131 26//131 30//131
f 30//72 29//72 33//72
f 32//73 34//73 33//73
f 36//72 35//72 39//72
f 38//74 40//74 39//74
f 42//75 41//75 45//75
f 44//76 46//76 45//76
f 18//77 17//77 47//77
f 51//78 53//78 49//78
f 54//79 53//79 55//79
f 58//80 61//80 59//80
f 51//81 50//81 59//81
f 2//82 57//82 3//82
f 21//132 20//132 62//132
f 64//84 67//84 65//84
f 69//85 68//85 72//85
f 71//86 73//86 72//86
f 75//87 74//87 78//87
f 78//133 77//133 81//133
f 82//89 84//89 85//89
f 87//134 86//134 88//134
f 90//135 89//135 91//135
f 92//92 95//92 93//92
f 96//93 95//93 97//93
f 98//92 101//92 99//92
f 102//94 101//94 103//94
f 104//95 107//95 105//95
f 108//96 107//96 109//96
f 80//136 111//136 81//136
f 113//98 112//98 117//98
f 116//99 118//99 117//99
f 121//100 123//100 124//100
f 113//101 123//101 114//101
f 66//102 65//102 119//102
f 83//137 126//137 84//137
f 21//104 83//104 19//104
f 87//105 23//105 85//105
f 61//106 124//106 62//106
f 43//107 106//107 44//107
f 109//108 111//108 46//108
f 88//109 90//109 25//109
f 79//110 16//110 80//110
f 91//111 93//111 28//111
f 6//112 68//112 4//112
f 66//113 2//113 64//113
f 54//138 116//138 52//138
f 114//115 50//115 112//115
f 96//116 32//116 94//116
f 7//117 9//117 70//117
f 57//118 119//118 55//118
f 97//116 99//116 34//116
f 10//119 12//119 73//119
f 60//120 122//120 58//120
f 100//121 102//121 37//121
f 15//122 77//122 13//122
f 105//139 41//139 103//139
f 1//124 4//124 64//124
