# Blender v2.76 (sub 0) OBJ File: 'sverige3.blend'
# www.blender.org
mtllib 9.mtl
o Plane.019_Plane.020
v -1.072909 0.406704 3.846206
v -1.084372 0.406704 3.920433
v -1.050131 0.362223 3.887722
v -1.021334 0.406704 3.787263
v -0.972852 0.362223 3.799403
v -0.947630 0.406704 3.756254
v -0.894825 0.406704 3.759189
v -0.801450 0.362223 3.808926
v -0.854439 0.406704 3.717358
v -0.869990 0.406704 3.546297
v -0.827938 0.362223 3.517558
v -0.843960 0.406704 3.469210
v -0.817522 0.406704 3.440368
v -0.767898 0.362223 3.452060
v -0.742984 0.406704 3.407578
v -0.635236 0.406704 3.407578
v -0.610939 0.362223 3.452060
v -0.561463 0.406704 3.441054
v -0.509888 0.406704 3.499997
v -0.500781 0.362223 3.577954
v -0.436116 0.406704 3.533473
v -0.367710 0.406704 3.533473
v -0.303958 0.362223 3.577954
v -0.292807 0.406704 3.501022
v -0.235625 0.406704 3.440029
v -0.173904 0.362223 3.439229
v -0.172414 0.406704 3.377522
v -0.143571 0.406704 3.351083
v -0.150105 0.362223 3.417414
v -0.108375 0.406704 3.365442
v -1.034254 0.406704 4.075197
v -0.992011 0.362223 4.020569
v -1.053935 0.406704 3.990004
v -1.028516 0.406704 4.212923
v -0.992492 0.406704 4.285841
v -0.983042 0.362223 4.235816
v -0.947530 0.406704 4.323310
v -0.918015 0.406704 4.396023
v -0.866636 0.362223 4.332820
v -0.946470 0.406704 4.666349
v -0.908069 0.406704 4.721749
v -0.902880 0.362223 4.677143
v -0.654891 0.406704 4.760160
v -0.699158 0.362223 4.729959
v -0.739248 0.406704 4.765517
v -0.454227 0.406704 4.679895
v -0.443519 0.406704 4.631083
v -0.490276 0.362223 4.646406
v -0.552294 0.406704 4.516267
v -0.538709 0.406704 4.478778
v -0.676189 0.362223 4.450164
v -0.306031 0.406704 4.451404
v -0.236000 0.406704 4.410011
v -0.286606 0.362223 4.404331
v -0.193287 0.406704 4.350214
v -0.127648 0.406704 4.333910
v -0.181537 0.362223 4.257235
v -0.037261 0.406704 4.379104
v 0.037636 0.406704 4.371687
v -0.002656 0.362223 4.346674
v 0.052392 0.406704 4.360211
v 0.083077 0.406704 4.288641
v 0.040797 0.362223 4.312877
v 0.076192 0.406704 4.219794
v 0.044746 0.406704 4.140201
v 0.028762 0.362223 4.192525
v -0.003503 0.406704 4.077105
v -0.009591 0.406704 4.002522
v -0.083230 0.362223 4.046074
v 0.011492 0.406704 3.962994
v 0.025661 0.406704 3.879782
v -0.013791 0.362223 3.915876
v 0.007714 0.406704 3.763130
v -0.033221 0.406704 3.690691
v -0.040454 0.362223 3.742564
v -0.059299 0.406704 3.668959
v -0.095877 0.406704 3.596066
v -0.136837 0.362223 3.662245
v -1.072910 0.679965 3.846206
v -1.050131 0.724447 3.887722
v -1.084372 0.679965 3.920433
v -1.021334 0.679965 3.787263
v -0.947630 0.679965 3.756254
v -0.972852 0.724447 3.799403
v -0.894825 0.679965 3.759189
v -0.854439 0.679965 3.717358
v -0.801450 0.724447 3.808926
v -0.869990 0.679965 3.546297
v -0.843960 0.679965 3.469210
v -0.827938 0.724447 3.517558
v -0.817522 0.679965 3.440368
v -0.742984 0.679965 3.407578
v -0.767898 0.724447 3.452060
v -0.635236 0.679965 3.407578
v -0.561464 0.679965 3.441054
v -0.610939 0.724447 3.452060
v -0.509888 0.679965 3.499997
v -0.436116 0.679965 3.533473
v -0.500781 0.724447 3.577954
v -0.367710 0.679965 3.533473
v -0.292807 0.679965 3.501022
v -0.303958 0.724447 3.577954
v -0.235625 0.679965 3.440029
v -0.172414 0.679965 3.377522
v -0.173904 0.724447 3.439229
v -0.143571 0.679965 3.351083
v -0.108375 0.679965 3.365442
v -0.150105 0.724447 3.417414
v -1.034254 0.679965 4.075197
v -1.053935 0.679965 3.990004
v -0.992011 0.724447 4.020569
v -1.028516 0.679965 4.212923
v -0.983042 0.724447 4.235815
v -0.992492 0.679965 4.285841
v -0.947530 0.679965 4.323310
v -0.866636 0.724447 4.332820
v -0.918015 0.679965 4.396023
v -0.946470 0.679965 4.666349
v -0.902880 0.724447 4.677143
v -0.908069 0.679965 4.721749
v -0.654891 0.679965 4.760160
v -0.739248 0.679965 4.765517
v -0.699158 0.724447 4.729959
v -0.454227 0.679965 4.679895
v -0.490276 0.724447 4.646406
v -0.443519 0.679965 4.631083
v -0.552294 0.679965 4.516267
v -0.676189 0.724447 4.450164
v -0.538709 0.679965 4.478778
v -0.306031 0.679965 4.451404
v -0.286606 0.724447 4.404331
v -0.236000 0.679965 4.410011
v -0.193287 0.679965 4.350214
v -0.181537 0.724447 4.257235
v -0.127648 0.679965 4.333910
v -0.037261 0.679965 4.379104
v -0.002656 0.724447 4.346674
v 0.037636 0.679965 4.371687
v 0.052392 0.679965 4.360211
v 0.040797 0.724447 4.312877
v 0.083077 0.679965 4.288641
v 0.076192 0.679965 4.219794
v 0.028762 0.724447 4.192525
v 0.044746 0.679965 4.140201
v -0.003503 0.679965 4.077105
v -0.083230 0.724447 4.046074
v -0.009590 0.679965 4.002522
v 0.011492 0.679965 3.962994
v -0.013791 0.724447 3.915876
v 0.025661 0.679965 3.879782
v 0.007714 0.679965 3.763130
v -0.040454 0.724447 3.742564
v -0.033221 0.679965 3.690691
v -0.059299 0.679965 3.668959
v -0.136837 0.724447 3.662245
v -0.095877 0.679965 3.596066
vn -0.916200 -0.000000 0.400800
vn -0.251000 0.000000 0.968000
vn 0.000000 0.000000 -1.000000
vn 0.794400 0.000000 -0.607400
vn 0.726000 0.000000 -0.687700
vn -0.729500 0.000000 -0.683900
vn 0.882300 -0.000000 0.470600
vn 0.116800 0.000000 0.993200
vn -0.675700 0.000000 -0.737200
vn 0.988400 0.000000 -0.152100
vn 0.000000 -1.000000 0.000000
vn 0.813700 0.000000 0.581200
vn 0.998500 0.000000 -0.054100
vn 0.640200 0.000000 -0.768200
vn -0.995900 0.000000 0.090500
vn -0.447200 0.000000 0.894400
vn -0.640200 0.000000 0.768200
vn 0.000000 1.000000 0.000000
vn -0.737200 0.000000 -0.675700
vn 0.613900 0.000000 0.789300
vn 0.055500 0.000000 -0.998500
vn -0.999100 0.000000 0.041600
vn 0.995000 0.000000 -0.099500
vn -0.994500 0.000000 -0.104700
vn 0.752600 0.000000 -0.658500
vn 0.371400 0.000000 0.928500
vn -0.829200 -0.544100 -0.128000
vn -0.321500 -0.559000 -0.764300
vn -0.288200 -0.916200 -0.278300
vn -0.780200 -0.567400 -0.263400
vn -0.331400 -0.567800 -0.753500
vn 0.340900 -0.565100 -0.751300
vn 0.228000 -0.834000 -0.502500
vn -0.221800 -0.829900 -0.512000
vn -0.506500 -0.693600 -0.512200
vn 0.215900 -0.820700 -0.529100
vn -0.623200 -0.768700 0.144000
vn -0.738400 -0.567100 0.364800
vn -0.490100 -0.848700 0.198900
vn -0.683700 -0.555000 0.473900
vn 0.050900 -0.595200 0.802000
vn 0.707100 -0.689900 0.155100
vn 0.286500 -0.952400 0.103800
vn 0.419000 -0.567300 0.709000
vn 0.109300 -0.891200 0.440200
vn 0.082700 -0.544300 0.834800
vn 0.767500 -0.550200 0.329100
vn 0.738200 -0.608300 -0.291600
vn 0.498900 -0.865700 -0.040700
vn 0.793100 -0.593900 0.135100
vn 0.708100 -0.581800 -0.400100
vn 0.498000 -0.830400 -0.249900
vn -0.829200 0.544100 -0.128000
vn -0.321500 0.559000 -0.764300
vn -0.288200 0.916200 -0.278300
vn -0.780200 0.567400 -0.263400
vn -0.331400 0.567800 -0.753500
vn 0.340900 0.565100 -0.751300
vn 0.228000 0.834000 -0.502500
vn -0.221800 0.829900 -0.512000
vn -0.506500 0.693600 -0.512200
vn 0.215900 0.820700 -0.529100
vn -0.623200 0.768700 0.144000
vn -0.738400 0.567200 0.364800
vn -0.490100 0.848700 0.198900
vn -0.683700 0.555000 0.473900
vn 0.050900 0.595200 0.802000
vn 0.707100 0.689900 0.155100
vn 0.286500 0.952400 0.103800
vn 0.419000 0.567300 0.709000
vn 0.109300 0.891200 0.440200
vn 0.082700 0.544300 0.834800
vn 0.767500 0.550200 0.329100
vn 0.738200 0.608300 -0.291600
vn 0.498900 0.865700 -0.040700
vn 0.793100 0.593900 0.135100
vn 0.708100 0.581800 -0.400100
vn 0.498000 0.830400 -0.249900
vn -0.532200 -0.707100 -0.465600
vn 0.039200 -0.707100 -0.706000
vn -0.704200 -0.707100 0.064000
vn -0.521200 -0.707100 -0.477800
vn 0.000000 -0.707100 -0.707100
vn 0.532200 -0.707100 -0.465600
vn -0.515900 -0.707100 -0.483600
vn -0.477800 -0.707100 -0.521200
vn -0.706500 -0.707100 0.029400
vn -0.647800 -0.707100 0.283400
vn -0.452700 -0.707100 0.543200
vn -0.703200 -0.707100 -0.074000
vn 0.262600 -0.707100 0.656500
vn 0.513300 -0.707100 -0.486300
vn 0.082600 -0.707100 0.702300
vn 0.575400 -0.707100 0.411000
vn -0.316200 -0.707100 0.632500
vn 0.434100 -0.707100 0.558200
vn -0.177500 -0.707100 0.684500
vn 0.703600 -0.707100 -0.070400
vn 0.561700 -0.707100 -0.429500
vn 0.623900 -0.707100 0.332800
vn 0.698900 -0.707100 -0.107500
vn 0.452700 -0.707100 -0.543200
vn 0.706100 -0.707100 -0.038300
vn -0.532200 0.707100 -0.465600
vn 0.039200 0.707100 -0.706000
vn -0.704200 0.707100 0.064000
vn -0.521200 0.707100 -0.477800
vn 0.000000 0.707100 -0.707100
vn 0.532200 0.707100 -0.465600
vn -0.515900 0.707100 -0.483600
vn -0.477800 0.707100 -0.521200
vn -0.706500 0.707100 0.029400
vn -0.647800 0.707100 0.283400
vn -0.452700 0.707100 0.543200
vn -0.703200 0.707100 -0.074000
vn 0.262600 0.707100 0.656500
vn 0.513300 0.707100 -0.486300
vn 0.082600 0.707100 0.702300
vn 0.575400 0.707100 0.411000
vn -0.316200 0.707100 0.632500
vn 0.434100 0.707100 0.558200
vn -0.177500 0.707100 0.684500
vn 0.703600 0.707100 -0.070400
vn 0.561700 0.707100 -0.429500
vn 0.623900 0.707100 0.332800
vn 0.698900 0.707100 -0.107500
vn 0.452700 0.707100 -0.543200
vn 0.706100 0.707100 -0.038300
vn -0.926600 0.000000 0.376100
vn -0.821900 0.000000 0.569700
vn 0.413200 0.000000 -0.910600
vn 0.919100 0.000000 0.394100
vn 0.930000 0.000000 -0.367400
vn 0.063400 0.000000 0.998000
vn 0.976800 0.000000 0.214300
vn -0.397500 0.000000 -0.917600
vn 0.996700 0.000000 -0.081400
vn 0.940200 0.000000 0.340700
vn -0.703100 0.000000 -0.711100
vn 0.985800 -0.000000 0.167900
vn -0.387800 -0.000000 -0.921700
vn -0.988300 -0.000000 -0.152600
vn 0.508800 0.000000 0.860900
vn 0.377800 0.000000 -0.925900
vn 0.870600 0.000000 -0.492000
vn -0.719400 0.000000 -0.694600
vn 0.241000 0.000000 0.970500
vn -0.974300 0.000000 0.225100
vn -0.896600 0.000000 0.442900
vn 0.893800 0.000000 -0.448500
vn -0.947400 0.000000 -0.319900
vn 0.098500 0.000000 0.995100
vn -0.402700 0.000000 -0.915300
vn -0.752600 -0.000000 -0.658500
vn 0.882400 -0.000000 0.470600
vn -0.532100 -0.707100 -0.465600
vn -0.477800 -0.707100 -0.521300
vn -0.532100 0.707100 -0.465600
vn -0.477800 0.707100 -0.521300
vn 0.996700 -0.000000 -0.081300
vn 0.241100 0.000000 0.970500
usemtl None
s off
f 2//1 110//1 81//1
f 33//1 110//1 2//1
f 41//2 122//2 120//2
f 22//3 98//3 100//3
f 65//4 145//4 144//4
f 47//5 127//5 126//5
f 25//6 101//6 103//6
f 68//7 148//7 147//7
f 50//8 130//8 129//8
f 28//9 104//9 106//9
f 71//10 151//10 150//10
f 51//11 8//11 57//11
f 53//12 133//12 132//12
f 77//13 107//13 156//13
f 74//14 154//14 153//14
f 10//15 86//15 88//15
f 56//16 136//16 135//16
f 35//17 115//17 114//17
f 102//18 99//18 146//18
f 13//19 89//19 91//19
f 59//20 139//20 138//20
f 7//21 83//21 85//21
f 31//22 112//22 109//22
f 16//3 92//3 94//3
f 62//23 142//23 141//23
f 38//24 118//24 117//24
f 19//25 95//25 97//25
f 43//26 124//26 121//26
f 1//27 3//27 2//27
f 4//28 6//28 5//28
f 7//29 9//29 8//29
f 10//30 12//30 11//30
f 13//31 15//31 14//31
f 16//32 18//32 17//32
f 19//33 21//33 20//33
f 22//34 24//34 23//34
f 25//35 27//35 26//35
f 28//36 30//36 29//36
f 31//37 33//37 32//37
f 34//38 36//38 35//38
f 37//39 39//39 38//39
f 40//40 42//40 41//40
f 43//41 45//41 44//41
f 46//42 48//42 47//42
f 49//43 51//43 50//43
f 52//44 54//44 53//44
f 55//45 57//45 56//45
f 58//46 60//46 59//46
f 61//47 63//47 62//47
f 64//48 66//48 65//48
f 67//49 69//49 68//49
f 70//50 72//50 71//50
f 73//51 75//51 74//51
f 76//52 78//52 77//52
f 79//53 81//53 80//53
f 82//54 84//54 83//54
f 85//55 87//55 86//55
f 88//56 90//56 89//56
f 91//57 93//57 92//57
f 94//58 96//58 95//58
f 97//59 99//59 98//59
f 100//60 102//60 101//60
f 103//61 105//61 104//61
f 106//62 108//62 107//62
f 109//63 111//63 110//63
f 112//64 114//64 113//64
f 115//65 117//65 116//65
f 118//66 120//66 119//66
f 121//67 123//67 122//67
f 124//68 126//68 125//68
f 127//69 129//69 128//69
f 130//70 132//70 131//70
f 133//71 135//71 134//71
f 136//72 138//72 137//72
f 139//73 141//73 140//73
f 142//74 144//74 143//74
f 145//75 147//75 146//75
f 148//76 150//76 149//76
f 151//77 153//77 152//77
f 154//78 156//78 155//78
f 3//79 4//79 5//79
f 5//80 7//80 8//80
f 11//81 9//81 10//81
f 11//82 13//82 14//82
f 17//83 15//83 16//83
f 17//84 19//84 20//84
f 23//83 21//83 22//83
f 26//85 24//85 25//85
f 29//86 27//86 28//86
f 31//87 36//87 34//87
f 33//88 3//88 32//88
f 37//89 36//89 39//89
f 38//90 42//90 40//90
f 43//91 48//91 46//91
f 49//92 48//92 51//92
f 50//93 54//93 52//93
f 55//94 54//94 57//94
f 56//95 60//95 58//95
f 61//96 60//96 63//96
f 45//97 42//97 44//97
f 64//98 63//98 66//98
f 67//99 66//99 69//99
f 68//100 72//100 70//100
f 71//101 75//101 73//101
f 76//102 75//102 78//102
f 29//103 77//103 78//103
f 82//104 80//104 84//104
f 85//105 84//105 87//105
f 86//106 90//106 88//106
f 91//107 90//107 93//107
f 92//108 96//108 94//108
f 97//109 96//109 99//109
f 98//108 102//108 100//108
f 101//110 105//110 103//110
f 104//111 108//111 106//111
f 113//112 109//112 112//112
f 80//113 110//113 111//113
f 113//114 115//114 116//114
f 119//115 117//115 118//115
f 125//116 121//116 124//116
f 125//117 127//117 128//117
f 131//118 129//118 130//118
f 131//119 133//119 134//119
f 137//120 135//120 136//120
f 137//121 139//121 140//121
f 119//122 122//122 123//122
f 140//123 142//123 143//123
f 143//124 145//124 146//124
f 149//125 147//125 148//125
f 152//126 150//126 151//126
f 152//127 154//127 155//127
f 156//128 108//128 155//128
f 115//129 38//129 117//129
f 41//130 118//130 40//130
f 98//131 19//131 97//131
f 16//131 95//131 18//131
f 139//132 62//132 141//132
f 65//133 142//133 64//133
f 122//134 43//134 121//134
f 47//135 124//135 46//135
f 101//136 22//136 100//136
f 68//137 145//137 67//137
f 50//138 127//138 49//138
f 104//139 25//139 103//139
f 71//140 148//140 70//140
f 83//141 4//141 82//141
f 2//142 79//142 1//142
f 53//143 130//143 52//143
f 107//144 28//144 106//144
f 74//145 151//145 73//145
f 86//146 7//146 85//146
f 56//147 133//147 55//147
f 110//148 31//148 109//148
f 35//149 112//149 34//149
f 77//150 154//150 76//150
f 89//151 10//151 88//151
f 59//152 136//152 58//152
f 92//153 13//153 91//153
f 4//154 79//154 82//154
f 45//2 122//2 41//2
f 21//3 98//3 22//3
f 67//4 145//4 65//4
f 49//5 127//5 47//5
f 24//6 101//6 25//6
f 70//155 148//155 68//155
f 52//8 130//8 50//8
f 27//9 104//9 28//9
f 73//10 151//10 71//10
f 8//11 32//11 5//11
f 32//11 39//11 36//11
f 5//11 32//11 3//11
f 14//11 17//11 11//11
f 20//11 11//11 17//11
f 29//11 78//11 26//11
f 20//11 8//11 11//11
f 78//11 23//11 26//11
f 23//11 69//11 20//11
f 8//11 39//11 32//11
f 39//11 51//11 42//11
f 44//11 51//11 48//11
f 51//11 57//11 54//11
f 57//11 66//11 60//11
f 63//11 60//11 66//11
f 69//11 78//11 72//11
f 75//11 72//11 78//11
f 20//11 69//11 8//11
f 42//11 51//11 44//11
f 57//11 69//11 66//11
f 39//11 8//11 51//11
f 78//11 69//11 23//11
f 57//11 8//11 69//11
f 55//12 133//12 53//12
f 30//13 107//13 77//13
f 76//14 154//14 74//14
f 9//15 86//15 10//15
f 58//16 136//16 56//16
f 37//17 115//17 35//17
f 80//18 111//18 84//18
f 87//18 99//18 90//18
f 93//18 90//18 96//18
f 102//18 155//18 105//18
f 90//18 99//18 96//18
f 105//18 155//18 108//18
f 87//18 146//18 99//18
f 111//18 87//18 84//18
f 116//18 111//18 113//18
f 123//18 128//18 119//18
f 128//18 123//18 125//18
f 134//18 128//18 131//18
f 140//18 143//18 137//18
f 146//18 134//18 143//18
f 152//18 155//18 149//18
f 102//18 146//18 155//18
f 111//18 116//18 87//18
f 119//18 128//18 116//18
f 143//18 134//18 137//18
f 128//18 87//18 116//18
f 146//18 87//18 134//18
f 155//18 146//18 149//18
f 128//18 134//18 87//18
f 12//19 89//19 13//19
f 61//20 139//20 59//20
f 6//21 83//21 7//21
f 34//22 112//22 31//22
f 15//3 92//3 16//3
f 64//23 142//23 62//23
f 40//24 118//24 38//24
f 18//25 95//25 19//25
f 46//26 124//26 43//26
f 1//156 4//156 3//156
f 6//80 7//80 5//80
f 8//81 9//81 11//81
f 12//82 13//82 11//82
f 14//83 15//83 17//83
f 18//84 19//84 17//84
f 20//83 21//83 23//83
f 23//85 24//85 26//85
f 26//157 27//157 29//157
f 32//87 36//87 31//87
f 2//88 3//88 33//88
f 35//89 36//89 37//89
f 39//90 42//90 38//90
f 44//91 48//91 43//91
f 47//92 48//92 49//92
f 51//93 54//93 50//93
f 53//94 54//94 55//94
f 57//95 60//95 56//95
f 59//96 60//96 61//96
f 41//97 42//97 45//97
f 62//98 63//98 64//98
f 65//99 66//99 67//99
f 69//100 72//100 68//100
f 72//101 75//101 71//101
f 74//102 75//102 76//102
f 30//103 77//103 29//103
f 79//158 80//158 82//158
f 83//105 84//105 85//105
f 87//106 90//106 86//106
f 89//107 90//107 91//107
f 93//108 96//108 92//108
f 95//109 96//109 97//109
f 99//108 102//108 98//108
f 102//110 105//110 101//110
f 105//159 108//159 104//159
f 111//112 109//112 113//112
f 81//113 110//113 80//113
f 114//114 115//114 113//114
f 116//115 117//115 119//115
f 123//116 121//116 125//116
f 126//117 127//117 125//117
f 128//118 129//118 131//118
f 132//119 133//119 131//119
f 134//120 135//120 137//120
f 138//121 139//121 137//121
f 120//122 122//122 119//122
f 141//123 142//123 140//123
f 144//124 145//124 143//124
f 146//125 147//125 149//125
f 149//126 150//126 152//126
f 153//127 154//127 152//127
f 107//128 108//128 156//128
f 37//129 38//129 115//129
f 120//130 118//130 41//130
f 21//131 19//131 98//131
f 94//131 95//131 16//131
f 61//132 62//132 139//132
f 144//133 142//133 65//133
f 45//134 43//134 122//134
f 126//135 124//135 47//135
f 24//136 22//136 101//136
f 147//160 145//160 68//160
f 129//138 127//138 50//138
f 27//139 25//139 104//139
f 150//140 148//140 71//140
f 6//141 4//141 83//141
f 81//142 79//142 2//142
f 132//143 130//143 53//143
f 30//144 28//144 107//144
f 153//145 151//145 74//145
f 9//146 7//146 86//146
f 135//161 133//161 56//161
f 33//148 31//148 110//148
f 114//149 112//149 35//149
f 156//150 154//150 77//150
f 12//151 10//151 89//151
f 138//152 136//152 59//152
f 15//153 13//153 92//153
f 1//154 79//154 4//154
