# Blender v2.76 (sub 0) OBJ File: 'sverige3.blend'
# www.blender.org
mtllib v1.mtl
o Plane.012_Plane.013
v -3.306609 0.412138 5.097504
v -3.261957 0.362223 5.119848
v -3.240779 0.412138 5.074631
v -3.508977 0.412138 5.529223
v -3.534307 0.412138 5.624160
v -3.481164 0.362223 5.587492
v -3.542333 0.412138 5.720467
v -3.498055 0.412138 5.782315
v -3.493213 0.362223 5.732075
v -3.464375 0.412138 5.790735
v -3.451246 0.412138 5.838135
v -3.318319 0.362223 5.775798
v -3.706975 0.412138 6.093864
v -3.698932 0.412138 6.153924
v -3.660765 0.362223 6.118244
v -3.671396 0.412138 6.169658
v -3.584425 0.412138 6.170182
v -3.627713 0.362223 6.137131
v -3.524848 0.412138 6.137084
v -3.445920 0.412138 6.148138
v -3.472543 0.362223 6.050925
v -3.418614 0.412138 6.175444
v -3.356865 0.412138 6.168412
v -3.392392 0.362223 6.131077
v -3.328194 0.412138 6.122538
v -3.268251 0.412138 6.043198
v -3.341721 0.362223 6.050004
v -3.025225 0.412138 5.774590
v -2.975953 0.412138 5.784930
v -2.971411 0.362223 5.640714
v -2.974890 0.412138 5.788120
v -2.977643 0.412138 5.881817
v -2.905971 0.362223 5.837034
v -3.005831 0.412138 5.952288
v -2.978491 0.412138 6.018294
v -2.959934 0.362223 5.971942
v -2.956036 0.412138 6.027917
v -2.890960 0.412138 6.001505
v -2.936840 0.362223 5.981840
v -2.847775 0.412138 5.897863
v -2.780826 0.412138 5.837256
v -2.865608 0.362223 5.810884
v -2.501063 0.412138 5.752110
v -2.433040 0.412138 5.691965
v -2.489662 0.362223 5.696466
v -2.408320 0.412138 5.636346
v -2.360782 0.412138 5.548925
v -2.432039 0.362223 5.566813
v -2.170576 0.412138 5.257277
v -2.181207 0.412138 5.182984
v -2.209034 0.362223 5.224873
v -2.219623 0.412138 5.150056
v -2.248322 0.412138 5.068513
v -2.311893 0.362223 5.136709
v -2.217772 0.412138 4.905577
v -2.236260 0.412138 4.814987
v -2.261378 0.362223 4.867295
v -2.246149 0.412138 4.800153
v -2.319566 0.412138 4.738616
v -2.307250 0.362223 4.798486
v -2.489162 0.412138 4.664417
v -2.568282 0.412138 4.681511
v -2.521891 0.362223 4.704580
v -2.648344 0.412138 4.770469
v -2.707415 0.412138 4.764769
v -2.689799 0.362223 4.891145
v -2.753949 0.412138 4.687212
v -2.823449 0.412138 4.668313
v -2.797784 0.362223 4.711170
v -2.915286 0.412138 4.718405
v -2.952758 0.412138 4.791816
v -2.905259 0.362223 4.769793
v -2.883873 0.412138 5.329118
v -2.927440 0.412138 5.378627
v -2.820804 0.362223 5.428542
v -2.941823 0.412138 5.378627
v -3.002195 0.412138 5.329821
v -3.032088 0.362223 5.428542
v -3.030226 0.412138 5.199011
v -3.087594 0.412138 5.133147
v -3.083703 0.362223 5.187673
v -3.173251 0.412138 5.101999
v -3.264804 0.412138 5.062618
v -3.239915 0.362223 5.130869
v -3.306609 0.674532 5.097504
v -3.240779 0.674532 5.074631
v -3.261957 0.724447 5.119848
v -3.508977 0.674532 5.529223
v -3.481164 0.724447 5.587492
v -3.534307 0.674532 5.624160
v -3.542333 0.674532 5.720467
v -3.493213 0.724447 5.732075
v -3.498055 0.674532 5.782315
v -3.464375 0.674532 5.790735
v -3.318319 0.724447 5.775798
v -3.451246 0.674532 5.838135
v -3.706975 0.674532 6.093864
v -3.660765 0.724447 6.118244
v -3.698932 0.674532 6.153924
v -3.671395 0.674532 6.169658
v -3.627713 0.724447 6.137131
v -3.584425 0.674532 6.170182
v -3.524848 0.674532 6.137084
v -3.472543 0.724447 6.050925
v -3.445920 0.674532 6.148138
v -3.418614 0.674532 6.175444
v -3.392392 0.724447 6.131077
v -3.356865 0.674532 6.168412
v -3.328194 0.674532 6.122538
v -3.341721 0.724447 6.050004
v -3.268251 0.674532 6.043198
v -3.025225 0.674532 5.774590
v -2.971411 0.724447 5.640714
v -2.975953 0.674532 5.784930
v -2.974890 0.674532 5.788120
v -2.905971 0.724447 5.837034
v -2.977643 0.674532 5.881817
v -3.005831 0.674532 5.952288
v -2.959934 0.724447 5.971942
v -2.978490 0.674532 6.018294
v -2.956036 0.674532 6.027917
v -2.936840 0.724447 5.981840
v -2.890960 0.674532 6.001505
v -2.847775 0.674532 5.897863
v -2.865608 0.724447 5.810884
v -2.780826 0.674532 5.837256
v -2.501063 0.674532 5.752110
v -2.489662 0.724447 5.696466
v -2.433040 0.674532 5.691965
v -2.408320 0.674532 5.636346
v -2.432039 0.724447 5.566813
v -2.360782 0.674532 5.548925
v -2.170576 0.674532 5.257277
v -2.209034 0.724447 5.224873
v -2.181207 0.674532 5.182984
v -2.219623 0.674532 5.150056
v -2.311893 0.724447 5.136709
v -2.248322 0.674532 5.068513
v -2.217772 0.674532 4.905577
v -2.261378 0.724447 4.867295
v -2.236260 0.674532 4.814987
v -2.246149 0.674532 4.800153
v -2.307250 0.724447 4.798486
v -2.319566 0.674532 4.738616
v -2.489162 0.674532 4.664417
v -2.521891 0.724447 4.704580
v -2.568282 0.674532 4.681511
v -2.648344 0.674532 4.770469
v -2.689799 0.724447 4.891145
v -2.707415 0.674532 4.764769
v -2.753949 0.674532 4.687212
v -2.797784 0.724447 4.711170
v -2.823449 0.674532 4.668313
v -2.915286 0.674532 4.718405
v -2.905259 0.724447 4.769793
v -2.952758 0.674532 4.791816
v -2.883873 0.674532 5.329118
v -2.820804 0.724447 5.428542
v -2.927440 0.674532 5.378627
v -2.941823 0.674532 5.378627
v -3.032088 0.724447 5.428542
v -3.002195 0.674532 5.329821
v -3.030226 0.674532 5.199011
v -3.083703 0.724447 5.187673
v -3.087594 0.674532 5.133147
v -3.173251 0.674532 5.101999
v -3.239915 0.724447 5.130869
v -3.264804 0.674532 5.062618
vn -0.447200 0.000000 0.894400
vn -0.447300 0.000000 0.894400
vn 0.000000 0.000000 -1.000000
vn -0.393900 0.000000 0.919200
vn 0.977800 0.000000 -0.209500
vn 0.923100 0.000000 0.384600
vn 0.341700 0.000000 -0.939800
vn 0.291200 0.000000 0.956700
vn 0.000000 1.000000 0.000000
vn 0.913800 0.000000 0.406100
vn -0.996500 0.000000 -0.083000
vn -0.905500 0.000000 -0.424400
vn 0.837600 0.000000 0.546300
vn -0.242500 0.000000 0.970100
vn 0.650800 0.000000 -0.759300
vn -0.707100 0.000000 -0.707100
vn 0.982900 0.000000 0.184300
vn -0.496100 0.000000 0.868200
vn 0.832000 0.000000 -0.554700
vn 0.485600 0.000000 0.874200
vn 0.400800 0.000000 -0.916200
vn -0.707100 0.000000 0.707100
vn -0.743300 0.000000 -0.669000
vn 0.848000 0.000000 0.530000
vn 0.857500 0.000000 -0.514500
vn 0.741500 0.000000 0.670900
vn -0.478900 0.000000 -0.877900
vn -0.948700 0.000000 0.316200
vn -0.991900 0.000000 0.127200
vn -0.928500 0.000000 -0.371400
vn -0.266800 -0.582400 -0.767900
vn -0.740100 -0.642900 -0.197500
vn -0.677100 -0.553600 0.484800
vn -0.314200 -0.945400 0.087000
vn -0.754200 -0.648900 0.101000
vn -0.005000 -0.549000 0.835800
vn -0.065800 -0.880200 0.470000
vn 0.087400 -0.635800 0.766900
vn 0.538800 -0.737600 0.407100
vn -0.068100 -0.943500 0.324400
vn -0.578500 -0.815500 -0.017000
vn -0.757300 -0.572800 0.313700
vn 0.306500 -0.579300 0.755300
vn 0.366900 -0.837300 0.405300
vn 0.546800 -0.564500 0.618400
vn 0.596000 -0.734700 0.324100
vn 0.822100 -0.557100 -0.117600
vn 0.487800 -0.855900 -0.171700
vn 0.801700 -0.574900 -0.163600
vn 0.511300 -0.605500 -0.609900
vn -0.177200 -0.543800 -0.820300
vn 0.035800 -0.927800 -0.371400
vn 0.215600 -0.569900 -0.792900
vn -0.747800 -0.543200 -0.381700
vn -0.303300 -0.914800 -0.266900
vn 0.291100 -0.886400 -0.360000
vn 0.629700 -0.550100 -0.548500
vn 0.271300 -0.727100 -0.630700
vn -0.266800 0.582400 -0.767900
vn -0.740100 0.642900 -0.197500
vn -0.677100 0.553600 0.484800
vn -0.314200 0.945400 0.087000
vn -0.754200 0.648900 0.101000
vn -0.005000 0.549000 0.835800
vn -0.065800 0.880200 0.470000
vn 0.087400 0.635800 0.766900
vn 0.538800 0.737600 0.407100
vn -0.068100 0.943500 0.324400
vn -0.578500 0.815500 -0.017000
vn -0.757300 0.572800 0.313700
vn 0.306500 0.579300 0.755300
vn 0.366900 0.837300 0.405300
vn 0.546800 0.564500 0.618400
vn 0.596000 0.734700 0.324100
vn 0.822100 0.557100 -0.117600
vn 0.487800 0.855900 -0.171700
vn 0.801700 0.574900 -0.163600
vn 0.511300 0.605500 -0.609900
vn -0.177200 0.543800 -0.820300
vn 0.035800 0.927800 -0.371400
vn 0.215600 0.569900 -0.792900
vn -0.747800 0.543200 -0.381700
vn -0.303300 0.914800 -0.266900
vn 0.291100 0.886400 -0.360000
vn 0.629700 0.550100 -0.548500
vn 0.271300 0.727100 -0.630700
vn -0.640300 -0.707100 -0.300100
vn -0.704700 -0.707100 -0.058700
vn -0.171500 -0.707100 0.686000
vn -0.500000 -0.707100 -0.500000
vn -0.350800 -0.707100 0.613900
vn 0.343400 -0.707100 0.618100
vn -0.500000 -0.707100 0.500000
vn 0.599600 -0.707100 0.374800
vn 0.524300 -0.707100 0.474400
vn -0.670900 -0.707000 0.223600
vn -0.656500 -0.707100 -0.262600
vn -0.278600 -0.707100 0.649900
vn 0.652700 -0.707100 0.272000
vn 0.205900 -0.707100 0.676500
vn 0.646200 -0.707100 0.287200
vn 0.592300 -0.707100 0.386300
vn 0.460200 -0.707100 -0.536900
vn 0.695000 -0.707100 0.130300
vn 0.588400 -0.707100 -0.392200
vn 0.283400 -0.707100 -0.647800
vn -0.525600 -0.707100 -0.473000
vn 0.606300 -0.707100 -0.363800
vn -0.338600 -0.707100 -0.620800
vn -0.701400 -0.707100 0.089900
vn 0.000000 -0.707100 -0.707100
vn 0.691400 -0.707100 -0.148200
vn 0.241600 -0.707100 -0.664500
vn 0.316200 -0.707100 -0.632500
vn -0.640300 0.707100 -0.300100
vn -0.704700 0.707100 -0.058700
vn -0.171500 0.707100 0.686000
vn -0.500000 0.707100 -0.500000
vn -0.350800 0.707100 0.613900
vn 0.343400 0.707100 0.618100
vn -0.500000 0.707100 0.500000
vn 0.599600 0.707100 0.374800
vn 0.524300 0.707100 0.474400
vn -0.670900 0.707100 0.223600
vn -0.656500 0.707100 -0.262600
vn -0.278500 0.707100 0.649900
vn 0.652700 0.707100 0.272000
vn 0.205900 0.707100 0.676500
vn 0.646200 0.707100 0.287200
vn 0.592300 0.707100 0.386300
vn 0.460200 0.707100 -0.536900
vn 0.695000 0.707100 0.130300
vn 0.588400 0.707100 -0.392200
vn 0.283400 0.707100 -0.647800
vn -0.525600 0.707100 -0.473000
vn 0.606300 0.707100 -0.363800
vn -0.338600 0.707100 -0.620800
vn -0.701400 0.707100 0.089900
vn 0.000000 0.707100 -0.707100
vn 0.691400 0.707100 -0.148200
vn 0.241600 0.707100 -0.664500
vn -0.316200 -0.707100 0.632500
vn -0.890700 0.000000 -0.454600
vn -0.750700 0.000000 -0.660600
vn -0.999600 0.000000 -0.029400
vn -0.923900 0.000000 0.382700
vn 0.628700 0.000000 -0.777700
vn 0.376100 0.000000 0.926600
vn 0.754100 0.000000 -0.656800
vn 0.671100 0.000000 0.741300
vn 0.395100 0.000000 -0.918600
vn 0.662400 0.000000 0.749200
vn -0.328200 0.000000 -0.944600
vn -0.966200 0.000000 -0.257800
vn 0.878500 0.000000 0.477700
vn -0.813100 0.000000 0.582100
vn 0.989900 0.000000 -0.141700
vn -0.963700 0.000000 0.266900
vn 0.943300 0.000000 -0.332000
vn -0.991200 0.000000 0.132700
vn 0.979800 0.000000 -0.200000
vn -0.006000 0.000000 1.000000
vn 0.642400 0.000000 -0.766400
vn -0.138700 0.000000 0.990300
vn -0.211200 0.000000 -0.977400
vn 0.113100 0.000000 0.993600
vn 0.096000 0.000000 -0.995400
vn 0.797900 0.000000 0.602800
vn 0.262400 0.000000 -0.965000
vn -0.205400 0.000000 0.978700
vn 0.000000 -1.000000 -0.000000
vn -0.393900 0.000000 0.919100
vn 0.485700 0.000000 0.874200
vn -0.350900 -0.707100 0.613900
vn -0.670800 -0.707100 0.223600
vn -0.278500 -0.707100 0.649900
vn -0.316200 0.707100 0.632500
vn -0.350900 0.707100 0.613900
vn -0.670800 0.707100 0.223600
vn 0.316200 0.707100 -0.632500
vn 0.671100 0.000000 0.741400
vn 0.113200 0.000000 0.993600
usemtl None
s off
f 83//1 86//1 168//1
f 3//2 86//2 83//2
f 74//3 160//3 159//3
f 37//4 120//4 35//4
f 77//5 163//5 162//5
f 38//6 124//6 123//6
f 80//7 166//7 165//7
f 41//8 127//8 126//8
f 158//9 113//9 125//9
f 44//10 130//10 129//10
f 5//11 91//11 90//11
f 1//12 88//12 85//12
f 47//13 133//13 132//13
f 8//14 94//14 93//14
f 50//15 136//15 135//15
f 11//16 97//16 96//16
f 53//17 139//17 138//17
f 16//18 99//18 14//18
f 56//19 142//19 141//19
f 17//20 103//20 102//20
f 59//21 145//21 144//21
f 20//22 106//22 105//22
f 62//23 148//23 147//23
f 23//24 109//24 108//24
f 65//25 151//25 150//25
f 26//26 112//26 111//26
f 68//27 154//27 153//27
f 29//28 115//28 114//28
f 71//29 157//29 156//29
f 32//30 118//30 117//30
f 1//31 3//31 2//31
f 4//32 6//32 5//32
f 7//33 9//33 8//33
f 10//34 12//34 11//34
f 13//35 15//35 14//35
f 16//36 18//36 17//36
f 19//37 21//37 20//37
f 22//38 24//38 23//38
f 25//39 27//39 26//39
f 28//40 30//40 29//40
f 31//41 33//41 32//41
f 34//42 36//42 35//42
f 37//43 39//43 38//43
f 40//44 42//44 41//44
f 43//45 45//45 44//45
f 46//46 48//46 47//46
f 49//47 51//47 50//47
f 52//48 54//48 53//48
f 55//49 57//49 56//49
f 58//50 60//50 59//50
f 61//51 63//51 62//51
f 64//52 66//52 65//52
f 67//53 69//53 68//53
f 70//54 72//54 71//54
f 73//55 75//55 74//55
f 76//56 78//56 77//56
f 79//57 81//57 80//57
f 82//58 84//58 83//58
f 85//59 87//59 86//59
f 88//60 90//60 89//60
f 91//61 93//61 92//61
f 94//62 96//62 95//62
f 97//63 99//63 98//63
f 100//64 102//64 101//64
f 103//65 105//65 104//65
f 106//66 108//66 107//66
f 109//67 111//67 110//67
f 112//68 114//68 113//68
f 115//69 117//69 116//69
f 118//70 120//70 119//70
f 121//71 123//71 122//71
f 124//72 126//72 125//72
f 127//73 129//73 128//73
f 130//74 132//74 131//74
f 133//75 135//75 134//75
f 136//76 138//76 137//76
f 139//77 141//77 140//77
f 142//78 144//78 143//78
f 145//79 147//79 146//79
f 148//80 150//80 149//80
f 151//81 153//81 152//81
f 154//82 156//82 155//82
f 157//83 159//83 158//83
f 160//84 162//84 161//84
f 163//85 165//85 164//85
f 166//86 168//86 167//86
f 4//87 2//87 6//87
f 5//88 9//88 7//88
f 10//89 9//89 12//89
f 11//90 15//90 13//90
f 16//91 15//91 18//91
f 19//92 18//92 21//92
f 20//93 24//93 22//93
f 25//94 24//94 27//94
f 28//95 27//95 30//95
f 29//96 33//96 31//96
f 32//97 36//97 34//97
f 35//98 39//98 37//98
f 40//99 39//99 42//99
f 41//100 45//100 43//100
f 46//101 45//101 48//101
f 47//102 51//102 49//102
f 52//103 51//103 54//103
f 53//104 57//104 55//104
f 58//105 57//105 60//105
f 59//106 63//106 61//106
f 64//107 63//107 66//107
f 65//108 69//108 67//108
f 70//109 69//109 72//109
f 73//110 72//110 75//110
f 74//111 78//111 76//111
f 77//112 81//112 79//112
f 82//113 81//113 84//113
f 2//114 83//114 84//114
f 87//115 88//115 89//115
f 92//116 90//116 91//116
f 92//117 94//117 95//117
f 98//118 96//118 97//118
f 98//119 100//119 101//119
f 101//120 103//120 104//120
f 107//121 105//121 106//121
f 107//122 109//122 110//122
f 110//123 112//123 113//123
f 116//124 114//124 115//124
f 119//125 117//125 118//125
f 122//126 120//126 121//126
f 122//127 124//127 125//127
f 128//128 126//128 127//128
f 128//129 130//129 131//129
f 134//130 132//130 133//130
f 134//131 136//131 137//131
f 140//132 138//132 139//132
f 140//133 142//133 143//133
f 146//134 144//134 145//134
f 146//135 148//135 149//135
f 152//136 150//136 151//136
f 152//137 154//137 155//137
f 155//138 157//138 158//138
f 161//139 159//139 160//139
f 164//140 162//140 163//140
f 164//141 166//141 167//141
f 86//142 167//142 168//142
f 154//143 71//143 156//143
f 74//144 157//144 73//144
f 115//145 32//145 117//145
f 35//146 118//146 34//146
f 77//147 160//147 76//147
f 38//148 121//148 37//148
f 80//149 163//149 79//149
f 41//150 124//150 40//150
f 83//151 166//151 82//151
f 44//152 127//152 43//152
f 3//153 85//153 86//153
f 5//154 88//154 4//154
f 47//155 130//155 46//155
f 8//156 91//156 7//156
f 50//157 133//157 49//157
f 11//158 94//158 10//158
f 53//159 136//159 52//159
f 14//160 97//160 13//160
f 56//161 139//161 55//161
f 17//162 100//162 16//162
f 59//163 142//163 58//163
f 105//164 19//164 20//164
f 62//165 145//165 61//165
f 108//166 22//166 23//166
f 65//167 148//167 64//167
f 26//168 109//168 25//168
f 68//169 151//169 67//169
f 29//170 112//170 28//170
f 54//171 75//171 66//171
f 76//3 160//3 74//3
f 121//172 120//172 37//172
f 79//5 163//5 77//5
f 40//6 124//6 38//6
f 82//7 166//7 80//7
f 43//8 127//8 41//8
f 89//9 167//9 87//9
f 167//9 161//9 164//9
f 158//9 149//9 155//9
f 89//9 161//9 167//9
f 155//9 149//9 152//9
f 89//9 95//9 161//9
f 95//9 89//9 92//9
f 101//9 104//9 98//9
f 110//9 104//9 107//9
f 104//9 95//9 98//9
f 95//9 113//9 161//9
f 158//9 137//9 149//9
f 146//9 149//9 143//9
f 137//9 131//9 134//9
f 143//9 149//9 140//9
f 104//9 110//9 95//9
f 149//9 137//9 140//9
f 137//9 158//9 131//9
f 125//9 116//9 122//9
f 131//9 158//9 128//9
f 110//9 113//9 95//9
f 158//9 125//9 128//9
f 122//9 116//9 119//9
f 113//9 158//9 161//9
f 125//9 113//9 116//9
f 46//10 130//10 44//10
f 7//11 91//11 5//11
f 4//12 88//12 1//12
f 49//13 133//13 47//13
f 10//14 94//14 8//14
f 52//15 136//15 50//15
f 13//16 97//16 11//16
f 55//17 139//17 53//17
f 100//18 99//18 16//18
f 58//19 142//19 56//19
f 19//173 103//173 17//173
f 61//21 145//21 59//21
f 22//22 106//22 20//22
f 64//23 148//23 62//23
f 25//24 109//24 23//24
f 67//25 151//25 65//25
f 28//26 112//26 26//26
f 70//27 154//27 68//27
f 31//28 115//28 29//28
f 73//29 157//29 71//29
f 34//30 118//30 32//30
f 1//87 2//87 4//87
f 6//88 9//88 5//88
f 8//89 9//89 10//89
f 12//90 15//90 11//90
f 14//174 15//174 16//174
f 17//92 18//92 19//92
f 21//93 24//93 20//93
f 23//94 24//94 25//94
f 26//95 27//95 28//95
f 30//175 33//175 29//175
f 33//97 36//97 32//97
f 36//176 39//176 35//176
f 38//99 39//99 40//99
f 42//100 45//100 41//100
f 44//101 45//101 46//101
f 48//102 51//102 47//102
f 50//103 51//103 52//103
f 54//104 57//104 53//104
f 56//105 57//105 58//105
f 60//106 63//106 59//106
f 62//107 63//107 64//107
f 66//108 69//108 65//108
f 68//109 69//109 70//109
f 71//110 72//110 73//110
f 75//111 78//111 74//111
f 78//112 81//112 77//112
f 80//113 81//113 82//113
f 3//177 83//177 2//177
f 85//115 88//115 87//115
f 89//116 90//116 92//116
f 93//117 94//117 92//117
f 95//118 96//118 98//118
f 99//178 100//178 98//178
f 102//120 103//120 101//120
f 104//121 105//121 107//121
f 108//122 109//122 107//122
f 111//123 112//123 110//123
f 113//179 114//179 116//179
f 116//125 117//125 119//125
f 119//126 120//126 122//126
f 123//127 124//127 122//127
f 125//128 126//128 128//128
f 129//129 130//129 128//129
f 131//130 132//130 134//130
f 135//131 136//131 134//131
f 137//132 138//132 140//132
f 141//133 142//133 140//133
f 143//134 144//134 146//134
f 147//135 148//135 146//135
f 149//136 150//136 152//136
f 153//137 154//137 152//137
f 156//138 157//138 155//138
f 158//139 159//139 161//139
f 161//140 162//140 164//140
f 165//141 166//141 164//141
f 87//180 167//180 86//180
f 70//143 71//143 154//143
f 159//144 157//144 74//144
f 31//145 32//145 115//145
f 120//146 118//146 35//146
f 162//147 160//147 77//147
f 123//148 121//148 38//148
f 165//149 163//149 80//149
f 126//181 124//181 41//181
f 168//151 166//151 83//151
f 129//152 127//152 44//152
f 1//153 85//153 3//153
f 90//154 88//154 5//154
f 132//155 130//155 47//155
f 93//156 91//156 8//156
f 135//157 133//157 50//157
f 96//158 94//158 11//158
f 138//159 136//159 53//159
f 99//160 97//160 14//160
f 141//161 139//161 56//161
f 102//162 100//162 17//162
f 144//163 142//163 59//163
f 103//164 19//164 105//164
f 147//165 145//165 62//165
f 106//182 22//182 108//182
f 150//167 148//167 65//167
f 111//168 109//168 26//168
f 153//169 151//169 68//169
f 114//170 112//170 29//170
f 84//171 6//171 2//171
f 6//171 12//171 9//171
f 12//171 21//171 15//171
f 21//171 27//171 24//171
f 15//171 21//171 18//171
f 84//171 78//171 6//171
f 78//171 84//171 81//171
f 69//171 66//171 72//171
f 78//171 12//171 6//171
f 66//171 75//171 72//171
f 75//171 30//171 78//171
f 12//171 27//171 21//171
f 33//171 39//171 36//171
f 12//171 30//171 27//171
f 33//171 42//171 39//171
f 78//171 30//171 12//171
f 30//171 42//171 33//171
f 42//171 75//171 45//171
f 48//171 54//171 51//171
f 54//171 66//171 57//171
f 60//171 66//171 63//171
f 75//171 42//171 30//171
f 60//171 57//171 66//171
f 48//171 75//171 54//171
f 75//171 48//171 45//171
